<?xml version="1.0" encoding="UTF-8" standalone="no"?>
<svg
   version="1.1"
   viewBox="-335.5 -213.23831 640.93695 112.13973"
   id="svg1"
   sodipodi:docname="TOP_LOGO.svg"
   inkscape:version="1.4.2 (f4327f4, 2025-05-13)"
   width="640.93695"
   height="112.13973"
   xmlns:inkscape="http://www.inkscape.org/namespaces/inkscape"
   xmlns:sodipodi="http://sodipodi.sourceforge.net/DTD/sodipodi-0.dtd"
   xmlns="http://www.w3.org/2000/svg"
   xmlns:svg="http://www.w3.org/2000/svg">
  <defs
     id="defs1" />
  <sodipodi:namedview
     id="namedview1"
     pagecolor="#ffffff"
     bordercolor="#000000"
     borderopacity="0.25"
     inkscape:showpageshadow="2"
     inkscape:pageopacity="0.0"
     inkscape:pagecheckerboard="0"
     inkscape:deskcolor="#d1d1d1"
     inkscape:zoom="0.8870596"
     inkscape:cx="285.21195"
     inkscape:cy="112.16834"
     inkscape:window-width="1031"
     inkscape:window-height="981"
     inkscape:window-x="-8"
     inkscape:window-y="0"
     inkscape:window-maximized="0"
     inkscape:current-layer="svg1" />
  <g
     id="g2">
    <path
       fill="#3fb3da"
       d="m 293.18687,-185.29163 q -2.44,4.57 -5.5,8.73 -5.78,7.88 -5.86,7.99 -11.77,16.74 -27.48,30.66 -11.27,9.98 -22.18,18.22 -1.03,-8.07 -0.38,-13.56 20.96,-13.04 34.53,-30.93 5.89,-7.77 15.8,-23.27 c 1.76,-2.75 2.88,-5.59 4.42,-8.06 a 0.97,0.97 0 0 0 -0.21,-1.27 q -2.2,-1.79 -5,-2.17 a 0.78,0.79 1.8 0 1 -0.67,-0.72 q -0.05,-0.82 0.55,-0.48 l 19.2,-12.89 a 1.14,1.14 0 0 1 1.78,0.96 q -0.19,11.56 1.68,23.11 0.13,0.83 -0.05,1.35 a 0.47,0.46 24.3 0 1 -0.67,0.25 l -5.43,-3.14 a 0.93,0.94 32 0 0 -1.24,0.29 z"
       data-svg-id="svg-elem-1769288224331-ytqqwqjnl"
       id="svg-elem-1769288224331-ytqqwqjnl" />
    <path
       fill="#3fb3da"
       d="m 137.67687,-139.48163 -0.25,19.15 a 2.35,2.36 82.9 0 1 -1.76,2.25 q -7.09,1.88 -8.66,-3.72 a 1.47,1.47 0 0 0 -2.24,-0.81 q -3.15,2.12 -4.92,3.21 c -7.73,4.76 -17.87,2.66 -22.6,-5.27 q -2.99,-5.01 -4.13,-9.94 c -1.33,-11.79 1.64,-27.15 14.69,-30.57 q 9.22,-2.42 16.33,3.38 a 0.4,0.41 19.6 0 0 0.66,-0.32 l -0.12,-21.33 a 2.42,2.42 0 0 1 2.1,-2.41 q 1.83,-0.24 6.08,-0.17 4.43,0.06 4.42,4.56 -0.04,20.97 0.4,41.99 z m -14.6,-13.75 q -4.04,-2.6 -9.25,-1.73 c -3.97,0.67 -6.81,5.6 -7.31,9.2 -1.23,8.76 -0.43,20.31 11.19,18.65 3.32,-0.47 4.15,-1.56 6.03,-4.18 q 1.05,-1.47 1.03,-5.47 -0.02,-5.45 -0.47,-14.35 a 2.7,2.69 15.1 0 0 -1.22,-2.12 z"
       data-svg-id="svg-elem-1769288224331-9csdm6s8m"
       id="svg-elem-1769288224331-9csdm6s8m" />
    <path
       id="svg-elem-1769288224331-8c7fk6mi6"
       style="fill:#3fb3da"
       d="m 69.115059,-182.18459 a 7.9499998,7.5999999 29.9 0 1 10.680336,-2.62544 7.9499998,7.5999999 29.9 0 1 3.103322,10.55139 7.9499998,7.5999999 29.9 0 1 -10.680336,2.62544 7.9499998,7.5999999 29.9 0 1 -3.103322,-10.55139 z" />
    <path
       id="svg-elem-1769288224331-7ft6wwqhq"
       style="fill:#0a2542"
       d="m -162.75314,-185.34163 h 8.74 c 1.00274,0 1.81,0.80726 1.81,1.81 v 63.46 c 0,1.00274 -0.80726,1.81 -1.81,1.81 h -8.74 c -1.00274,0 -1.81,-0.80726 -1.81,-1.81 v -63.46 c 0,-1.00274 0.80726,-1.81 1.81,-1.81 z" />
    <path
       id="svg-elem-1769288224331-jbkc0im8p"
       style="fill:#0a2542"
       d="m 232.35691,-177.92165 a 7.4299998,7.4299998 0 0 1 -7.43,7.43 7.4299998,7.4299998 0 0 1 -7.43,-7.43 7.4299998,7.4299998 0 0 1 7.43,-7.43 7.4299998,7.4299998 0 0 1 7.43,7.43 z" />
    <path
       fill="#0a2542"
       d="m -188.97313,-141.62163 a 0.4,0.41 0 0 0 -0.4,-0.41 h -8.86 a 1.93,1.93 0 0 1 -1.93,-1.92 l -0.03,-5.9 a 1.22,1.23 89.8 0 1 1.23,-1.23 h 20.16 a 1.29,1.3 89.8 0 1 1.3,1.28 l 0.24,25.37 a 1.22,1.26 53.9 0 1 -0.07,0.41 q -0.84,2.36 -4.33,3.65 -15.77,5.85 -30.1,1.33 c -15.35,-4.85 -22.33,-18.85 -21.18,-34.43 1.43,-19.39 18.92,-31.68 37.59,-29.1 6.55,0.9 14,2.88 18.02,8.35 a 1.51,1.52 44.6 0 1 0.01,1.79 q -2.1,2.95 -3.78,5.07 c -2.09,2.64 -5.45,0.23 -8.1,-1.21 -4.32,-2.35 -9.02,-2.53 -13.81,-2.2 -8.53,0.6 -14.81,7 -16.48,15.05 -1.34,6.43 -0.51,14.65 3.89,20.14 q 6.37,7.97 17.51,7.76 a 3.7,3.41 34.8 0 0 0.8,-0.11 l 7.59,-1.86 a 0.97,0.96 83.2 0 0 0.73,-0.94 z"
       data-svg-id="svg-elem-1769288224331-41maifaeo"
       id="svg-elem-1769288224331-41maifaeo" />
    <path
       fill="#3fb3da"
       d="m 242.04687,-146.42163 a 0.69,0.69 0 0 1 -0.92,-0.64 q -0.17,-6.6 1.19,-12.82 c 1.85,-8.47 6.58,-13.44 13.84,-18.17 q 6.59,-4.31 14.39,-4.46 0.8,-0.02 1.15,0.13 a 1.11,1.1 26.7 0 1 0.53,1.58 q -4.15,6.96 -10.56,13.4 a 16.5,17.57 82.6 0 0 -2.05,2.5 q -3.87,5.78 -5.01,6.99 -5.55,5.87 -11.27,10.74 -0.59,0.5 -1.29,0.75 z"
       data-svg-id="svg-elem-1769288224331-ezzckj4wn"
       id="svg-elem-1769288224331-ezzckj4wn" />
    <path
       fill="#0a2542"
       d="m 185.11687,-181.99163 q 2.67,0.62 3.61,3.12 11.09,29.31 23.55,59.37 a 1.1,1.11 77.5 0 1 -0.98,1.53 q -3.59,0.14 -7.76,0.06 c -2.77,-0.05 -4.85,-0.92 -6.06,-3.79 q -1.98,-4.71 -3.23,-9.12 a 2.84,2.83 81.9 0 0 -2.74,-2.06 l -22.47,0.13 a 0.87,0.89 10.8 0 0 -0.82,0.57 q -1.81,4.86 -4.31,10.58 -0.88,2.02 -1.79,2.74 a 2.05,2.09 22.2 0 1 -0.99,0.43 q -5.12,0.77 -10.28,0.02 a 1.12,1.12 0 0 1 -0.89,-1.5 l 15.34,-40.55 q 5.03,-12.58 6.95,-17.8 0.69,-1.87 1.91,-3.07 a 1.34,1.34 0 0 1 0.91,-0.38 z m -3.72,13.76 a 0.58,0.58 0 0 0 -1.1,0 l -8.28,24.7 a 0.58,0.58 0 0 0 0.55,0.77 l 16.43,-0.11 a 0.58,0.58 0 0 0 0.55,-0.76 z"
       data-svg-id="svg-elem-1769288224331-dzk0gy1de"
       id="svg-elem-1769288224331-dzk0gy1de" />
    <path
       fill="#3fb3da"
       d="m 48.21687,-150.00163 5.57,2.49 a 2,1.98 83.7 0 1 0.75,0.61 q 7.09,9.92 1.23,19.64 c -4.92,8.15 -14.71,9.8 -23.48,9.51 q -10.6,-0.35 -21.57,-0.25 a 1.87,1.87 0 0 1 -1.88,-1.86 l -0.34,-60.67 a 1.23,1.24 89.1 0 1 1.21,-1.24 q 11.34,-0.25 25.09,0.18 c 9.46,0.29 20.2,3.7 21.08,14.56 0.41,5.1 -0.72,9.64 -4.42,13.18 q -1.36,1.3 -3.36,3.02 a 0.5,0.5 0 0 0 0.12,0.83 z m -25.89,-20.59 -0.08,14.68 a 0.8,0.8 0 0 0 0.8,0.8 l 12.07,0.06 a 7.33,7.37 0.3 0 0 7.37,-7.33 v -1.54 a 7.33,7.37 0.3 0 0 -7.29,-7.41 l -12.07,-0.06 a 0.8,0.8 0 0 0 -0.8,0.8 z m -0.12,25.37 0.12,16.46 a 0.29,0.29 0 0 0 0.29,0.29 l 13.84,-0.1 a 7.58,8.39 89.6 0 0 8.34,-7.64 l -0.02,-1.88 a 7.58,8.39 89.6 0 0 -8.44,-7.52 l -13.84,0.1 a 0.29,0.29 0 0 0 -0.29,0.29 z"
       data-svg-id="svg-elem-1769288224331-q9jkh8l8r"
       id="svg-elem-1769288224331-q9jkh8l8r" />
    <path
       fill="#0a2542"
       d="m 249.90687,-127.11163 a 1.22,1.23 58.4 0 1 0.34,-1.4 l 8.46,-7.28 a 1.36,1.36 0 0 1 2.08,0.38 c 1.77,3.26 5.4,5.42 9.3,6.15 q 12,2.24 17.9,-7.66 c 2.78,-4.66 3.64,-13.43 2.22,-18.56 q -0.05,-0.18 -1.55,-6.64 a 1.16,1.13 15.3 0 0 -0.34,-0.58 l -2.19,-1.97 a 1.22,1.22 0 0 1 -0.07,-1.74 q 3.47,-3.69 6.07,-8.85 a 1.61,1.61 0 0 1 2.58,-0.42 q 9.25,9.25 9.66,22.49 c 0.34,11.21 -0.97,21.74 -10.35,28.75 a 1.6,1.6 0 0 0 -0.19,2.4 q 5.17,5.32 10.41,10.65 1.49,1.52 1.13,3.32 a 0.73,0.73 0 0 1 -0.62,0.58 c -4.57,0.64 -9.15,1.69 -12.94,-0.52 -4.75,-2.76 -6.83,-5.94 -10.2,-9.42 a 1.68,1.68 0 0 0 -1.75,-0.43 c -5.9,1.95 -10.6,0.99 -17.14,-0.68 -4.96,-1.26 -8.39,-4.02 -11.74,-7.11 q -0.74,-0.69 -1.07,-1.46 z"
       data-svg-id="svg-elem-1769288224331-5lg9gtfjc"
       id="svg-elem-1769288224331-5lg9gtfjc" />
    <path
       fill="#0a2542"
       d="m -101.24313,-118.41163 -7.87,-0.08 a 1.36,1.35 72.7 0 1 -1.09,-0.58 q -0.64,-0.93 -0.94,-2.34 a 1.51,1.5 66.7 0 0 -2.32,-0.93 q -5.89,4.03 -12.74,5.28 c -2.57,0.47 -6.04,-0.68 -8.86,-1.73 q -3.93,-1.46 -5.99,-6.33 c -3.9,-9.19 3.54,-16.15 11.99,-17.93 q 6.16,-1.29 14.62,-2.3 a 0.67,0.68 84.6 0 0 0.59,-0.71 l -0.39,-5.67 a 2.08,2.08 0 0 0 -0.68,-1.42 c -5.77,-5.33 -9.92,-2.45 -16.99,0.42 -3.28,1.33 -7.42,-1.97 -6.54,-5.51 0.94,-3.83 11.13,-6.6 14.44,-7.08 6.57,-0.6 12.47,-0.14 17.39,4.26 q 5.13,4.57 5.37,12.33 0.47,15.11 0.01,30.32 z m -14.09,-18.39 c -3.58,-0.37 -9.92,-0.26 -12.75,3.21 -2.19,2.68 -2.21,6.6 1.55,7.74 q 6.37,1.93 11.52,-3.43 a 0.86,0.88 70.5 0 0 0.23,-0.47 l 0.7,-5.48 a 1.41,1.4 6.6 0 0 -1.25,-1.57 z"
       data-svg-id="svg-elem-1769288224331-hucsmtz7j"
       id="svg-elem-1769288224331-hucsmtz7j" />
    <path
       fill="#0a2542"
       d="m -20.11313,-165.62163 q 19.13,5.66 15.67,25.86 a 0.93,0.94 4.4 0 1 -0.91,0.78 l -29.87,0.16 a 0.78,0.78 0 0 0 -0.75,0.98 c 0.89,3.37 3.76,9.16 7.49,10.35 q 5.49,1.75 10.62,0 c 1.97,-0.66 4.41,-2.61 6.19,-3.37 a 2.56,2.56 0 0 1 2.23,0.1 q 2.35,1.27 4.41,4.47 a 2,2 0 0 1 -0.39,2.6 q -7.04,5.98 -16.78,6.64 c -4.04,0.27 -7.94,-0.93 -12.04,-1.69 a 4.94,4.79 64.3 0 1 -1.55,-0.57 c -11.74,-6.74 -15.16,-19.89 -10.88,-32.34 q 4.69,-10.33 15.23,-13.29 3.42,-0.96 11.33,-0.68 z m -14.89,18.56 19.46,-0.17 a 0.04,0.04 0 0 0 0.04,-0.04 v -0.08 a 9.4,9.69 89.5 0 0 -9.77,-9.31 h -0.16 a 9.4,9.69 89.5 0 0 -9.61,9.49 v 0.08 a 0.04,0.04 0 0 0 0.04,0.03 z"
       data-svg-id="svg-elem-1769288224331-ho4ws273c"
       id="svg-elem-1769288224331-ho4ws273c" />
    <path
       fill="#0a2542"
       d="m -73.68313,-164.92163 16.83,0.04 a 0.68,0.68 0 0 1 0.67,0.57 c 0.6,3.86 1.11,7.09 -1.6,10.59 l -18.31,25.24 a 0.78,0.78 0 0 0 0.63,1.23 h 18 a 1.45,1.45 0 0 1 1.45,1.45 v 6.26 a 1.47,1.48 0.2 0 1 -1.48,1.48 l -14.99,-0.04 -18.99,-0.67 q -1.81,-5.06 1.39,-9.58 8.52,-12.03 17.69,-23.3 1.03,-1.26 1.87,-2.68 a 0.35,0.36 15.8 0 0 -0.3,-0.54 l -18.02,0.1 a 1.61,1.6 89.6 0 1 -1.61,-1.6 l -0.04,-7.82 a 0.65,0.65 0 0 1 0.65,-0.66 z"
       data-svg-id="svg-elem-1769288224331-uqlbcxgzg"
       id="svg-elem-1769288224331-uqlbcxgzg" />
    <path
       fill="#3fb3da"
       d="m 82.48687,-125.17163 c -0.02,3.29 0.7,7.23 -3.22,7.31 q -2.51,0.32 -7,-0.09 c -2.07,-0.19 -2.8,-1.11 -2.81,-3.23 q -0.14,-30.39 0.36,-41.32 c 0.16,-3.45 8.77,-2.36 10.88,-1.99 a 2.29,2.29 0 0 1 1.9,2.27 z"
       data-svg-id="svg-elem-1769288224331-9uluwpuyx"
       id="svg-elem-1769288224331-9uluwpuyx" />
    <path
       fill="#0a2542"
       d="m 231.78687,-133.25163 q -0.65,5.49 0.38,13.56 -0.74,1.28 -2.39,1.35 -5,0.22 -9.83,0.26 a 0.76,0.76 0 0 1 -0.77,-0.72 l -0.21,-4.71 -0.04,-8.01 -0.03,-32.34 a 0.98,0.98 0 0 1 0.98,-0.99 h 9.52 a 1.66,1.67 89.5 0 1 1.67,1.63 z"
       data-svg-id="svg-elem-1769288224331-nphu8fcvv"
       id="svg-elem-1769288224331-nphu8fcvv" />
    <path
       fill="#9fe0ee"
       d="m 218.92687,-131.52163 0.04,8.01 z"
       data-svg-id="svg-elem-1769288224331-f6xf3wdg1"
       id="svg-elem-1769288224331-f6xf3wdg1" />
    <g
       id="g1"
       transform="matrix(0.48075765,0,0,0.48075765,-322.95081,-232.97739)">
      <path
         fill="#0a2542"
         d="m 53.307164,267.70937 -78.55,-43.87 a 1.69,1.67 15.1 0 1 -0.86,-1.48 l 0.11,-21.23 0.07,-48.58 q -0.21,-22.1 0.05,-31.02 c 0.09,-3.01 3.2,-4.75 6.23,-6.42 q 35.25,-19.4 70.31,-39.27 l 12.94,-7.45 a 0.55,0.54 75.2 0 1 0.81,0.48 v 204.48 a 0.52,0.52 0 0 1 -0.78,0.45 z m -37.9,-138.67 q -1.54,-0.3 -2.22,-0.83 a 1.59,1.56 10.1 0 1 -0.52,-0.73 q -2.37,-7.17 0.63,-14.63 0.48,-1.21 -0.45,-3.37 a 0.98,0.98 0 0 0 -0.75,-0.57 q -1.97,-0.31 -3.9999996,0.67 a 1.33,1.35 89.1 0 0 -0.63,0.64 c -0.86,1.86 0.43,3.4 1.23,4.94 a 7.13,7.09 29.2 0 1 0.79,2.76 q 0.1,1.25 0.6099996,7.64 0.24,3 1.2,3.74 c 1.74,1.35 1.21,3.27 0.51,4.25 q -4.0899996,5.74 -3.4999996,11.89 a 1.88,1.94 58.3 0 1 -0.32,1.26 q -0.22,0.32 -2.18,2.58 -3,3.44 -3.8,7.98 a 0.7,0.69 8.8 0 1 -0.77,0.56 l -3.43,-0.44 a 1.03,1.04 3.2 0 1 -0.9,-1.02 l -0.02,-8 a 3.55,3.58 57.8 0 1 0.36,-1.56 q 0.26,-0.55 1.03,-1.92 a 2.94,2.92 34 0 0 -0.74,-3.72 q -1.15,-0.93 -2.69,-0.54 c -3.21,0.82 -3.04,3.27 -1.51,5.46 q 1,1.44 1.03,1.97 0.19,3.03 0.28,9.17 a 2.12,2.12 0 0 0 1.85,2.07 l 4.64,0.59 a 1.42,1.41 1.8 0 1 1.23,1.3 l 0.31,4.66 a 1.47,1.46 83.8 0 1 -1.24,1.55 q -5.35,0.84 -10.38,-1.57 c -1.2900004,-0.62 -4.3100004,-0.82 -4.9200004,1.22 q -0.41,1.38 0.01,2.98 a 0.96,0.97 89.1 0 0 0.72,0.69 q 2.23,0.54 3.08,0.11 4.6900004,-2.42 10.31000044,-1.09 a 0.82,0.82 0 0 1 0.49,1.26 c -2.41000004,3.53 -2.93000004,8.01 -0.67,11.69 q 0.58,0.95 0.92999996,1.79 a 3.99,3.86 36.5 0 1 0.28,1.69 q -0.09,1.64 -0.22,2.94 c -0.35999996,3.42 1.35,7.36 3.49,9.91 0.78,0.94 2,1.39 2.77,2.28 a 1.68,1.67 22.7 0 1 0.4,0.97 c 0.42,5.61 0.79,9.84 6.4799996,12.67 q 2.65,1.32 2.75,1.42 a 2.53,2.44 10.2 0 1 0.55,0.76 q 0.07,0.14 3.04,5.65 c 1.77,3.27 4.7,5.37 8.32,6.01 q 2.42,0.42 2.83,0.6 a 4.94,4.91 81.7 0 1 1.95,1.46 l 3.25,4.04 a 4.08,4.09 87.7 0 0 0.88,0.81 c 8.67,6.1 18.93,4.3 23.06,-5.71 a 5.21,5.31 56.8 0 0 0.38,-1.74 q 0.22,-4.77 0.21,-6.3 -0.11,-17.11 -0.39,-33.13 -0.15,-9.17 0.07,-13.36 0.26,-4.82 0.06,-5.78 -0.13,-0.62 0.04,-54.58 c 0.02,-5.85 -4.28,-9.85 -9.59,-11.16 q -1.79,-0.44 -9.1,-0.05 a 3.91,3.99 35 0 0 -0.96,0.18 c -4.24,1.4 -7.38,4.66 -10.14,8.27 a 3.78,3.91 5.4 0 1 -1.18,1.01 q -0.13,0.06 -5.44,2.48 c -6.02,2.73 -6.25,7.49 -8.68,12.86 a 0.65,0.65 0 0 1 -0.71,0.37 z"
         data-svg-id="svg-elem-1769288224331-tbgm54cma"
         id="svg-elem-1769288224331-tbgm54cma" />
      <path
         fill="#3fb3da"
         d="m 98.307164,82.24937 62.859996,35.38 a 2.79,2.8 11.3 0 1 1.41,2.13 q 0.18,1.7 0.19,3.8 0.07,60.86 -0.2,97.74 c -0.02,2.3 -0.96,3.27 -3.02,4.38 q -7.39,3.97 -14.78,8.05 l -13.21,7.49 -33.449996,18.79 -25.03,14.2 a 0.81,0.81 0 0 1 -1.19,-0.53 q -0.14,-0.73 0.29,-1.6 c 0.37,-2.6 2.36,-3.76 3.63,-5.35 q 3.96,-4.93 6.92,-10.02 c 3.41,-5.86 9.08,-13.34 11.89,-19.11 q 2.96,-6.08 7.649996,-13.09 1.27,-1.91 2.78,-2.27 a 0.51,0.52 79.6 0 0 0.39,-0.55 q -0.08,-0.6 -0.63,-0.88 a 0.59,0.59 0 0 0 -0.74,0.16 q -1.02,1.29 -17.389996,11.45 -3.86,2.39 -12.7,9.07 -1.29,0.97 -1.94,-1.16 l -0.29,-137.07 q -0.05,-1.11 0.1,-1.35 a 0.94,0.95 41.6 0 1 1.52,-0.09 q 3.01,3.61 4.45,6.45 5.18,10.17 10.86,18.6 c 1.6,2.37 2.7,5.4 4.44,7.63 a 1.61,1.61 0 0 1 0.31,1.21 q -0.1,0.71 0.24,1.4 a 0.47,0.48 79 0 0 0.39,0.26 q 0.68,0.05 0.6,0.82 2.31,4.46 4.07,9.16 1.19,3.19 6.329996,11.65 -6.849996,3.75 -9.959996,10.72 c -0.35,0.78 -0.37,1.79 0.31,2.37 a 2.09,2.02 41.5 0 0 2.88,-0.13 c 2.149996,-2.4 3.729996,-4.54 5.989996,-5.17 a 1.58,1.58 0 0 1 1.95,1.93 c -0.95,3.57 -1.6,7.51 -2.83,11.31 q -3.859996,11.99 -6.609996,22.75 c -1.28,5.02 0.93,10.57 6.599996,10.86 q 12.43,0.62 19.17,-10.06 a 5.44,5.78 67.6 0 0 0.65,-1.44 q 0.53,-1.86 1.29,-3.02 a 1.23,1.23 0 0 0 -1.53,-1.8 q -4.04,1.81 -5.73,4.93 a 1.85,1.88 6.2 0 1 -1.11,0.91 q -2.38,0.72 -4.02,0.51 a 1.26,1.26 0 0 1 -1.04,-1.65 q 0.11,-0.31 3.48,-12.8 0.24,-0.86 4,-12.6 2.39,-7.49 3.64,-15.32 c 5.01,-2.88 10.63,-6.98 12.84,-12.58 2.58,-6.55 -0.93,-13.49 -6.78,-16.86 q -5.29,-3.06 -7.45,-3.3 -5.59,-0.65 -17.17,1.93 a 0.18,0.07 31.7 0 1 -0.11,-0.02 q -0.03,-0.02 -0.08,-0.02 a 0.05098682,0.08157892 47.3 0 1 0.03,-0.13 q 5.44,-1.52 9.93,-2.53 a 0.17,0.17 0 0 0 0.03,-0.32 l -2.66,-1.2 a 0.24,0.24 0 0 1 0.02,-0.44 l 14.61,-5.17 a 0.03,0.09 73.2 0 0 0.03,-0.02 q 5.15,-2.62 10.36,-3.4 a 0.62,0.62 0 0 0 0.37,-1.03 q -0.29,-0.32 -0.79,-0.42 -13.2,-2.67 -19.69,-4.61 c -2.99,-0.9 -5.56,-2.39 -8.05,-3.23 a 1.97,1.96 79.3 0 1 -0.93,-0.64 q -3.22,-3.97 -8.749996,-9.49 -1.17,-1.18 -8.57,-10.22 -3.7,-4.51 -7.2,-8.14 -0.52,-0.54 -7.77,-7.75 -0.87,-0.86 -1.79,-1.69 l -0.18,-1.05 a 0.5,0.5 0 0 1 0.73,-0.52 z m 46.499996,68.64 q -1.03,0.77 -1.2,2.16 -2.47,20.65 -4.14,31.21 -0.92,5.79 -1.69,15.47 -0.42,5.12 -1.43,15.62 a 1.94,1.95 9.1 0 0 1.5,2.08 l 18.82,4.31 a 2.38,2.5 66.7 0 1 0.57,0.21 l 2.96,1.52 a 1,1 0 0 0 1.46,-0.87 q 0.12,-4.58 -0.57,-6.85 -1.5,-4.93 -1.58,-5.64 -0.47,-4.16 -2.02,-8.9 c -3.13,-9.48 -4.8,-17.87 -7.36,-30.16 q -0.98,-4.71 -2.4,-9.88 -2.36,-8.61 -2.37,-10.01 a 0.34,0.34 0 0 0 -0.55,-0.27 z"
         data-svg-id="svg-elem-1769288224331-rby68x076"
         id="svg-elem-1769288224331-rby68x076" />
      <path
         fill="#9fe0ee"
         d="m 122.18716,161.29937 q 0.05,-2.93 -2.88,-2.85 -5.06,0.13 -8.76,-0.92 a 1.44,1.46 44.6 0 0 -0.8,0.01 l -4.69,1.46 q -5.139996,-8.46 -6.329996,-11.65 -1.76,-4.7 -4.07,-9.16 0.08,-0.77 -0.6,-0.82 a 0.47,0.48 79 0 1 -0.39,-0.26 q -0.34,-0.69 -0.24,-1.4 a 1.61,1.61 0 0 0 -0.31,-1.21 c -1.74,-2.23 -2.84,-5.26 -4.44,-7.63 q -5.68,-8.43 -10.86,-18.6 -1.44,-2.84 -4.45,-6.45 a 0.94,0.95 41.6 0 0 -1.52,0.09 q -0.15,0.24 -0.1,1.35 l -0.07,-28.82 a 1.74,1.93 48 0 1 0.04,-0.38 l 0.9,-4.04 q 0.92,0.83 1.79,1.69 7.25,7.21 7.77,7.75 3.5,3.63 7.2,8.14 7.4,9.04 8.57,10.22 5.529996,5.52 8.749996,9.49 a 1.97,1.96 79.3 0 0 0.93,0.64 c 2.49,0.84 5.06,2.33 8.05,3.23 q 6.49,1.94 19.69,4.61 0.5,0.1 0.79,0.42 a 0.62,0.62 0 0 1 -0.37,1.03 q -5.21,0.78 -10.36,3.4 a 0.03,0.09 73.2 0 1 -0.03,0.02 l -14.61,5.17 a 0.24,0.24 0 0 0 -0.02,0.44 l 2.66,1.2 a 0.17,0.17 0 0 1 -0.03,0.32 q -4.49,1.01 -9.93,2.53 a 0.05098682,0.08157892 47.3 0 0 -0.03,0.13 q 0.05,0 0.08,0.02 a 0.18,0.07 31.7 0 0 0.11,0.02 q 11.58,-2.58 17.17,-1.93 2.16,0.24 7.45,3.3 c 5.85,3.37 9.36,10.31 6.78,16.86 -2.21,5.6 -7.83,9.7 -12.84,12.58 z m 4.5751,-24.4286 a 8.32,8.93 52.4 0 0 -12.1515,-1.1432 8.32,8.93 52.4 0 0 -1.9987,12.0404 8.32,8.93 52.4 0 0 12.1515,1.1432 8.32,8.93 52.4 0 0 1.9987,-12.0404 z"
         data-svg-id="svg-elem-1769288224331-vapd551f1"
         id="svg-elem-1769288224331-vapd551f1" />
      <path
         fill="#9fe0ee"
         d="m 15.407164,129.03937 a 0.65,0.65 0 0 0 0.71,-0.37 c 2.43,-5.37 2.66,-10.13 8.68,-12.86 q 5.31,-2.42 5.44,-2.48 a 3.78,3.91 5.4 0 0 1.18,-1.01 c 2.76,-3.61 5.9,-6.87 10.14,-8.27 a 3.91,3.99 35 0 1 0.96,-0.18 q 7.31,-0.39 9.1,0.05 c 5.31,1.31 9.61,5.31 9.59,11.16 q -0.17,53.96 -0.04,54.58 0.2,0.96 -0.06,5.78 -0.22,4.19 -0.07,13.36 0.28,16.02 0.39,33.13 0.01,1.53 -0.21,6.3 a 5.21,5.31 56.8 0 1 -0.38,1.74 c -4.13,10.01 -14.39,11.81 -23.06,5.71 a 4.08,4.09 87.7 0 1 -0.88,-0.81 l -3.25,-4.04 a 4.94,4.91 81.7 0 0 -1.95,-1.46 q -0.41,-0.18 -2.83,-0.6 c -3.62,-0.64 -6.55,-2.74 -8.32,-6.01 q -2.97,-5.51 -3.04,-5.65 a 2.53,2.44 10.2 0 0 -0.55,-0.76 q -0.1,-0.1 -2.75,-1.42 c -5.6899996,-2.83 -6.0599996,-7.06 -6.4799996,-12.67 a 1.68,1.67 22.7 0 0 -0.4,-0.97 c -0.77,-0.89 -1.99,-1.34 -2.77,-2.28 -2.14,-2.55 -3.84999996,-6.49 -3.49,-9.91 q 0.13,-1.3 0.22,-2.94 a 3.99,3.86 36.5 0 0 -0.28,-1.69 q -0.34999996,-0.84 -0.92999996,-1.79 c -2.26000004,-3.68 -1.74000004,-8.16 0.67,-11.69 a 0.82,0.82 0 0 0 -0.49,-1.26 q -5.62000004,-1.33 -10.31000044,1.09 -0.85,0.43 -3.08,-0.11 a 0.96,0.97 89.1 0 1 -0.72,-0.69 q -0.42,-1.6 -0.01,-2.98 c 0.61,-2.04 3.63,-1.84 4.9200004,-1.22 q 5.03,2.41 10.38,1.57 a 1.47,1.46 83.8 0 0 1.24,-1.55 l -0.31,-4.66 a 1.42,1.41 1.8 0 0 -1.23,-1.3 l -4.64,-0.59 a 2.12,2.12 0 0 1 -1.85,-2.07 q -0.09,-6.14 -0.28,-9.17 -0.03,-0.53 -1.03,-1.97 c -1.53,-2.19 -1.7,-4.64 1.51,-5.46 q 1.54,-0.39 2.69,0.54 a 2.94,2.92 34 0 1 0.74,3.72 q -0.77,1.37 -1.03,1.92 a 3.55,3.58 57.8 0 0 -0.36,1.56 l 0.02,8 a 1.03,1.04 3.2 0 0 0.9,1.02 l 3.43,0.44 a 0.7,0.69 8.8 0 0 0.77,-0.56 q 0.8,-4.54 3.8,-7.98 1.96,-2.26 2.18,-2.58 a 1.88,1.94 58.3 0 0 0.32,-1.26 q -0.59,-6.15 3.4999996,-11.89 c 0.7,-0.98 1.23,-2.9 -0.51,-4.25 q -0.96,-0.74 -1.2,-3.74 -0.5099996,-6.39 -0.6099996,-7.64 a 7.13,7.09 29.2 0 0 -0.79,-2.76 c -0.8,-1.54 -2.09,-3.08 -1.23,-4.94 a 1.33,1.35 89.1 0 1 0.63,-0.64 q 2.0299996,-0.98 3.9999996,-0.67 a 0.98,0.98 0 0 1 0.75,0.57 q 0.93,2.16 0.45,3.37 -3,7.46 -0.63,14.63 a 1.59,1.56 10.1 0 0 0.52,0.73 q 0.68,0.53 2.22,0.83 z m 42.14,80 q -4.67,2.12 -5.28,7.37 a 0.73,0.74 20.9 0 1 -1.15,0.52 q -1.8,-1.24 -2.29,-2.68 a 1.17,1.2 48.8 0 1 0.07,-0.9 c 1.2,-2.34 5.36,-7.48 8.74,-7.24 a 0.57,0.57 0 0 0 0.61,-0.55 l 0.28,-13.07 a 1.94,1.94 0 0 0 -1.57,-1.94 q -5.07,-1 -9.75,-4.71 a 0.93,0.76 8.3 0 1 -0.21,-0.23 l -4.21,-6.38 a 0.95,0.94 73.4 0 0 -0.79,-0.43 l -6.04,0.03 a 1.49,1.52 63.9 0 1 -0.96,-0.32 c -4.18,-3.26 -7.54,-7.95 -6.72,-13.22 a 0.69,0.67 16 0 0 -0.42,-0.73 q -5.39,-2.23 -5.82,-7.17 a 0.78,0.78 0 0 0 -0.7,-0.7 q -2.17,-0.22 -5.28,-2.03 a 1.17,1.19 51.2 0 0 -0.97,-0.1 c -4.03,1.29 -3.92,4.96 -0.17,6.59 a 1.1,1.1 0 0 1 0.66,1.02 l -0.01,0.33 a 0.79,0.79 0 0 1 -1.06,0.73 c -7.7799996,-2.86 -4.18,-10.91 1.47,-13.23 a 1.38,1.39 69.9 0 1 1.84,0.85 l 0.56,1.69 a 1.95,1.95 0 0 0 2.82,1.08 l 1.92,-1.11 a 1.15,1.15 0 0 1 1.05,-0.06 q 1.24,0.54 2.03,1.9 a 0.89,0.89 0 0 1 0,0.88 l -1.2,2.07 a 0.93,0.96 51.3 0 0 -0.09,0.73 c 0.66,2.35 3.24,5.48 5.82,2.94 a 0.99,0.98 52.6 0 1 1.54,0.21 l 0.39,0.67 a 1.41,1.4 50.4 0 1 -0.15,1.61 c -3.23,3.74 -1.72,6.89 0.36,10.49 1.46,2.53 4.33,2 7.66,1.92 q 4.32,-0.09 4.68,-0.1 a 0.72,0.71 82.7 0 1 0.72,0.56 c 1.34,5.95 4.09,10.44 10.49,11.53 a 1.81,1.81 0 0 0 2.11,-1.88 l -0.57,-10.51 a 1.77,2.95 22.9 0 1 0,-0.37 l 0.22,-6.38 a 2.51,2.51 0 0 0 -1.94,-2.54 l -7.34,-1.68 a 2.09,2.08 12.5 0 1 -1.58,-2.47 c 0.66,-3.12 1,-6.49 -0.58,-9.22 a 3.7,3.71 72.9 0 0 -3.46,-1.83 q -1.58,0.1 -3.07,0.2 a 1.13,1.13 0 0 1 -0.92,-0.37 c -3.79,-4.03 -4.31,-8.11 -5.96,-13.43 q -0.37,-1.21 0.39,-4.18 a 2.16,2.17 7.2 0 1 2.08,-1.62 l 2.22,-0.01 a 0.84,0.84 0 0 1 0.68,1.35 q -2.19,2.92 -1.91,4.85 0.7,4.88 2.94,9.06 a 1.81,1.81 0 0 0 1.8,0.94 c 3.62,-0.44 6.28,1.54 8.07,4.38 1.31,2.09 0.87,6.44 0.92,8.08 a 1.31,1.3 5.8 0 0 1.01,1.23 l 5.79,1.33 a 0.73,0.72 6 0 0 0.89,-0.71 l -0.13,-23.4 a 1.97,1.97 0 0 0 -1.34,-1.85 l -2.66,-0.89 a 0.71,0.71 0 0 1 -0.06,-1.33 q 1.43,-0.63 3.65,-0.29 a 0.62,0.62 0 0 0 0.71,-0.61 l -0.04,-7.32 a 2.84,2.83 14.1 0 0 -1.48,-2.47 q -4.01,-2.15 -4.74,-6.47 a 1.75,1.75 0 0 0 -1.68,-1.46 l -5.17,-0.11 a 1.62,1.62 0 0 1 -1.51,-2.14 l 0.22,-0.68 a 2.93,2.94 13.4 0 1 3.19,-1.97 q 3.76,0.52 5.72,2.51 a 2.22,2.16 18.9 0 1 0.6,1.18 c 0.33,2.05 0.51,7.04 3.54,6.64 a 0.85,0.86 4.8 0 0 0.71,-0.61 q 1.85,-6.57 -1.42,-10.34 -3.43,-3.96 -9.9,-3.82 -9.45,0.21 -13.54,9.77 a 0.61,0.61 0 0 1 -0.53,0.37 c -7.75,0.46 -11.63,5.28 -12.54,12.76 a 1.85,1.84 71.5 0 1 -0.54,1.09 c -1.27,1.23 -3.81,2.67 -5.12,4.66 q -3.41,5.17 -1.83,10.98 a 1.09,1.07 57 0 1 -0.2,0.97 c -1.7,2.1 -6.2099996,5.39 -6.4399996,7.91 q -0.47,4.99 0.88,10.4 a 1.81,1.83 84 0 0 1.72,1.38 q 3.2799996,0.11 7.7999996,-0.48 1.57,-0.21 4.16,1.6 a 1.6,1.62 6.7 0 1 0.61,0.78 q 2.33,6.1 7.48,10.99 a 0.52,0.52 0 0 1 -0.37,0.9 l -1.74,-0.04 a 2.83,2.83 0 0 1 -2.4,-1.42 l -5.07,-8.78 a 2.18,2.18 0 0 0 -1.89,-1.09 l -11.1199996,0.07 a 2.52,2.51 13.1 0 0 -2.23,1.38 q -3.14999996,6.31 0.31,11.31 1,1.44 0.68,3.6 c -0.46,3.18 -0.94,5.9 0.88,8.74 q 1.83,2.85 5.4199996,4.94 a 0.87,0.9 14.4 0 1 0.44,0.77 c -0.06,3.67 -0.36,7.81 1.85,9.95 a 1.93,1.97 79.3 0 0 0.57,0.38 l 5.48,2.45 a 2.49,2.51 5.1 0 1 1.41,1.7 c 1.15,4.66 3.05,9.7 8.2,11.09 1.42,0.38 3.14,0.14 4.51,0.22 a 1.49,1.46 71.2 0 1 1.07,0.54 q 0.84,1.05 2.09,2.91 4.25,6.31 11.68,6.71 c 5.41,0.3 10.43,-4.21 10.27,-9.86 q -0.2,-7.29 -0.12,-16.81 a 0.49,0.49 0 0 0 -0.7,-0.45 z"
         data-svg-id="svg-elem-1769288224331-xfq6d8rth"
         id="svg-elem-1769288224331-xfq6d8rth" />
      <path
         fill="#0a2542"
         d="m 57.547164,209.03937 a 0.49,0.49 0 0 1 0.7,0.45 q -0.08,9.52 0.12,16.81 c 0.16,5.65 -4.86,10.16 -10.27,9.86 q -7.43,-0.4 -11.68,-6.71 -1.25,-1.86 -2.09,-2.91 a 1.49,1.46 71.2 0 0 -1.07,-0.54 c -1.37,-0.08 -3.09,0.16 -4.51,-0.22 -5.15,-1.39 -7.05,-6.43 -8.2,-11.09 a 2.49,2.51 5.1 0 0 -1.41,-1.7 l -5.48,-2.45 a 1.93,1.97 79.3 0 1 -0.57,-0.38 c -2.21,-2.14 -1.91,-6.28 -1.85,-9.95 a 0.87,0.9 14.4 0 0 -0.44,-0.77 q -3.5899996,-2.09 -5.4199996,-4.94 c -1.82,-2.84 -1.34,-5.56 -0.88,-8.74 q 0.32,-2.16 -0.68,-3.6 -3.45999996,-5 -0.31,-11.31 a 2.52,2.51 13.1 0 1 2.23,-1.38 l 11.1199996,-0.07 a 2.18,2.18 0 0 1 1.89,1.09 l 5.07,8.78 a 2.83,2.83 0 0 0 2.4,1.42 l 1.74,0.04 a 0.52,0.52 0 0 0 0.37,-0.9 q -5.15,-4.89 -7.48,-10.99 a 1.6,1.62 6.7 0 0 -0.61,-0.78 q -2.59,-1.81 -4.16,-1.6 -4.52,0.59 -7.7999996,0.48 a 1.81,1.83 84 0 1 -1.72,-1.38 q -1.35,-5.41 -0.88,-10.4 c 0.23,-2.52 4.7399996,-5.81 6.4399996,-7.91 a 1.09,1.07 57 0 0 0.2,-0.97 q -1.58,-5.81 1.83,-10.98 c 1.31,-1.99 3.85,-3.43 5.12,-4.66 a 1.85,1.84 71.5 0 0 0.54,-1.09 c 0.91,-7.48 4.79,-12.3 12.54,-12.76 a 0.61,0.61 0 0 0 0.53,-0.37 q 4.09,-9.56 13.54,-9.77 6.47,-0.14 9.9,3.82 3.27,3.77 1.42,10.34 a 0.85,0.86 4.8 0 1 -0.71,0.61 c -3.03,0.4 -3.21,-4.59 -3.54,-6.64 a 2.22,2.16 18.9 0 0 -0.6,-1.18 q -1.96,-1.99 -5.72,-2.51 a 2.93,2.94 13.4 0 0 -3.19,1.97 l -0.22,0.68 a 1.62,1.62 0 0 0 1.51,2.14 l 5.17,0.11 a 1.75,1.75 0 0 1 1.68,1.46 q 0.73,4.32 4.74,6.47 a 2.84,2.83 14.1 0 1 1.48,2.47 l 0.04,7.32 a 0.62,0.62 0 0 1 -0.71,0.61 q -2.22,-0.34 -3.65,0.29 a 0.71,0.71 0 0 0 0.06,1.33 l 2.66,0.89 a 1.97,1.97 0 0 1 1.34,1.85 l 0.13,23.4 a 0.73,0.72 6 0 1 -0.89,0.71 l -5.79,-1.33 a 1.31,1.3 5.8 0 1 -1.01,-1.23 c -0.05,-1.64 0.39,-5.99 -0.92,-8.08 -1.79,-2.84 -4.45,-4.82 -8.07,-4.38 a 1.81,1.81 0 0 1 -1.8,-0.94 q -2.24,-4.18 -2.94,-9.06 -0.28,-1.93 1.91,-4.85 a 0.84,0.84 0 0 0 -0.68,-1.35 l -2.22,0.01 a 2.16,2.17 7.2 0 0 -2.08,1.62 q -0.76,2.97 -0.39,4.18 c 1.65,5.32 2.17,9.4 5.96,13.43 a 1.13,1.13 0 0 0 0.92,0.37 q 1.49,-0.1 3.07,-0.2 a 3.7,3.71 72.9 0 1 3.46,1.83 c 1.58,2.73 1.24,6.1 0.58,9.22 a 2.09,2.08 12.5 0 0 1.58,2.47 l 7.34,1.68 a 2.51,2.51 0 0 1 1.94,2.54 l -0.22,6.38 a 1.77,2.95 22.9 0 0 0,0.37 l 0.57,10.51 a 1.81,1.81 0 0 1 -2.11,1.88 c -6.4,-1.09 -9.15,-5.58 -10.49,-11.53 a 0.72,0.71 82.7 0 0 -0.72,-0.56 q -0.36,0.01 -4.68,0.1 c -3.33,0.08 -6.2,0.61 -7.66,-1.92 -2.08,-3.6 -3.59,-6.75 -0.36,-10.49 a 1.41,1.4 50.4 0 0 0.15,-1.61 l -0.39,-0.67 a 0.99,0.98 52.6 0 0 -1.54,-0.21 c -2.58,2.54 -5.16,-0.59 -5.82,-2.94 a 0.93,0.96 51.3 0 1 0.09,-0.73 l 1.2,-2.07 a 0.89,0.89 0 0 0 0,-0.88 q -0.79,-1.36 -2.03,-1.9 a 1.15,1.15 0 0 0 -1.05,0.06 l -1.92,1.11 a 1.95,1.95 0 0 1 -2.82,-1.08 l -0.56,-1.69 a 1.38,1.39 69.9 0 0 -1.84,-0.85 c -5.65,2.32 -9.2499996,10.37 -1.47,13.23 a 0.79,0.79 0 0 0 1.06,-0.73 l 0.01,-0.33 a 1.1,1.1 0 0 0 -0.66,-1.02 c -3.75,-1.63 -3.86,-5.3 0.17,-6.59 a 1.17,1.19 51.2 0 1 0.97,0.1 q 3.11,1.81 5.28,2.03 a 0.78,0.78 0 0 1 0.7,0.7 q 0.43,4.94 5.82,7.17 a 0.69,0.67 16 0 1 0.42,0.73 c -0.82,5.27 2.54,9.96 6.72,13.22 a 1.49,1.52 63.9 0 0 0.96,0.32 l 6.04,-0.03 a 0.95,0.94 73.4 0 1 0.79,0.43 l 4.21,6.38 a 0.93,0.76 8.3 0 0 0.21,0.23 q 4.68,3.71 9.75,4.71 a 1.94,1.94 0 0 1 1.57,1.94 l -0.28,13.07 a 0.57,0.57 0 0 1 -0.61,0.55 c -3.38,-0.24 -7.54,4.9 -8.74,7.24 a 1.17,1.2 48.8 0 0 -0.07,0.9 q 0.49,1.44 2.29,2.68 a 0.73,0.74 20.9 0 0 1.15,-0.52 q 0.61,-5.25 5.28,-7.37 z m -5.13,-61.11 v -3.69 a 0.93,0.93 0 0 0 -0.8,-0.92 q -3.1,-0.43 -5,-4.36 a 1.4,1.4 0 0 1 0.43,-1.74 q 2.88,-2.14 3.38,-5.28 a 0.93,0.94 81.9 0 1 0.52,-0.69 l 2.13,-1.04 a 1.06,1.07 52.4 0 0 0.23,-1.76 c -2.57,-2.23 -3.9,-4.89 -5.85,-7.39 a 4.56,4.56 0 0 0 -0.8,-0.8 q -2.83,-2.22 -5.38,-4.48 -1.1,-0.98 -2.46,0.35 a 2.25,2.24 68 0 0 -0.68,1.61 v 1.49 a 0.63,0.63 0 0 0 0.97,0.53 q 1.64,-1.09 3.56,0.68 4.49,4.14 6.74,7.04 1.77,2.28 0.32,4.62 a 0.89,0.95 86.9 0 1 -0.26,0.27 l -5.09,3.42 a 0.97,1.05 81.9 0 0 -0.35,0.43 l -2.12,4.74 a 0.79,0.79 0 0 0 1.01,1.05 c 0.99,-0.39 2,-0.24 2.64,0.95 q 1.11,2.08 3.84,2.45 a 1.03,1.03 0 0 1 0.77,0.56 l 1.08,2.23 a 0.62,0.62 0 0 0 1.17,-0.27 z m -27.6,-18.93 q 0.47,-0.01 0.95,-0.15 0.5,-0.14 0.77,-0.49 c 2.46,-3.15 5.23,-5.11 9.13,-2.66 q 3.61,2.27 4.44,5.34 a 1.24,1.25 71.4 0 0 1.66,0.82 q 1.36,-0.53 1.57,-1.11 0.24,-0.65 -0.53,-1.66 -3.57,-4.7 -9.26,-7.06 -1.77,-0.73 -4.64,0.09 -4.71,1.33 -4.62,6.36 a 0.53,0.53 0 0 0 0.53,0.52 z m -3.42,18.96 a 0.32,0.32 0 0 0 0.33,-0.49 q -1.23,-1.96 -1.84,-3.52 c -1.41,-3.58 1.45,-6.78 4.94,-7.21 q 2.63,-0.32 4.7,0 a 1.15,1.15 0 0 0 0.62,-2.19 c -5.71,-2.36 -8.7,-1.11 -12.18,3.65 -2.88,3.94 -1.83,8.72 3.43,9.76 z m 7.26,-6.74 q -1.43,-0.32 -3.15,0.36 a 1.32,1.34 2.5 0 0 -0.73,0.68 q -1.11,2.41 0.36,3.87 4.24,4.22 8.23,8.75 0.49,0.56 2.53,1.48 a 0.95,0.95 0 0 0 1.33,-1.04 l -0.06,-0.31 a 0.3,0.32 13.6 0 0 -0.1,-0.18 q -3.36,-3.26 -5.67,-5.83 -2.65,-2.95 -1.97,-6.6 a 1.02,1.02 0 0 0 -0.77,-1.18 z m 20.63,28.63 -6.62,-3.83 a 1.49,1.5 15.3 0 1 -0.76,-1.34 l 0.19,-8.49 a 0.88,0.88 0 0 0 -1.27,-0.81 l -0.27,0.13 a 2.94,2.93 83.2 0 0 -1.73,2.2 q -0.78,4.6 -0.53,8.13 c 0.04,0.67 -0.26,1.39 -0.66,2.28 a 1.76,1.75 84.3 0 0 2.62,2.15 q 2.81,-2.01 6.68,0.94 a 1.64,1.62 43.1 0 0 2.06,-0.06 l 0.38,-0.32 a 0.6,0.6 0 0 0 -0.09,-0.98 z m -17.05,20.74 3.06,-0.21 a 0.93,0.92 85 0 0 0.86,-1.03 q -0.24,-2.08 1.6,-4.1 a 0.9,0.9 0 0 0 -0.67,-1.5 q -6.78,0.05 -15.27,0.66 -2.14,0.15 -3.37,-1.22 -3.44,-3.82 -5.78,-5.71 a 1.74,1.74 0 0 1 -0.48,-0.61 l -0.88,-1.79 a 1.55,1.55 0 0 0 -0.78,-0.75 q -1.4599996,-0.64 -2.4899996,0.09 a 2,1.97 87.1 0 0 -0.55,0.62 q -1.12,2.03 -0.75,4.03 a 1.55,1.46 69.1 0 0 2.25,1.09 c 2.2599996,-1.46 3.4499996,0.13 5.1499996,1.72 q 1.37,1.28 3.84,4.15 a 3.44,3.46 69.7 0 0 2.61,1.19 h 11.58 a 0.73,0.72 21.5 0 1 0.53,1.22 q -0.53,0.56 -0.9,1.57 a 0.43,0.44 7.6 0 0 0.44,0.58 z m 24.29,-16.38 q -0.58,-0.16 -1.62,0.45 -2.81,1.65 -3.92,2.69 a 1,1.01 62 0 0 -0.29,0.94 q 0.34,1.52 1.07,2.68 a 0.92,0.92 0 0 0 1.69,-0.32 q 0.61,-3.28 3.2,-5.29 a 0.61,0.68 35.6 0 0 -0.13,-1.15 z m -14.34,17.97 a 2.28,2.28 0 0 0 2.48,-1.09 l 1.92,-3.31 a 0.58,0.58 0 0 0 -0.46,-0.87 c -2.54,-0.2 -4.1,1.37 -6.32,3.28 a 0.88,0.88 0 0 0 0.37,1.53 z m -19.2,1.89 a 1.22,1.22 0 0 0 -1.05,-1.04 l -6.28,-0.8 a 1.25,1.26 78.8 0 1 -0.93,-0.62 l -1.21,-2.1 a 2.43,2.42 59.9 0 0 -3.32,-0.89 l -0.2599996,0.14 a 1.46,1.46 0 0 0 -0.38,2.21 q 3.4399996,4.06 5.4499996,4.15 6.54,0.32 6.99,0.36 a 0.97,0.98 89.3 0 0 1.04,-1.06 z m 20.9,33.68 q -0.4,-2.9 -2.62,-5.56 a 0.93,0.94 56.1 0 0 -1.14,-0.22 q -1.04,0.54 -1.72,1.81 a 1.41,1.44 48.8 0 0 -0.09,1.17 q 1.29,3.64 4.66,3.43 a 0.67,0.67 0 0 1 0.7,0.57 c 0.15,0.99 0.26,1.82 1.56,1.93 2.65,0.23 8.05,-0.87 8.03,-4.27 q -0.01,-1.98 -0.19,-2.99 a 1.47,1.48 8.1 0 0 -0.79,-1.06 q -4.36,-2.17 -7.64,-6.91 c -2.66,-3.82 0.32,-7.46 3.44,-9.66 2.25,-1.59 2.72,-3.9 2.48,-6.82 q -0.16,-1.89 0.51,-4.49 a 0.78,0.78 0 0 0 -1.27,-0.79 l -1.54,1.33 a 1.66,1.69 23.9 0 1 -1.04,0.41 q -5.65,0.22 -10.67,0.33 -3.34,0.08 -5.36,-1.06 -2,-1.13 -2.51,-1.28 c -1.73,-0.48 -2.94,0.93 -3,2.46 a 1.19,1.17 21.4 0 0 0.43,0.97 q 2.1,1.79 4.49,1.96 2.27,0.16 15.99,-0.56 a 1.07,1.07 0 0 1 0.97,0.52 c 1.11,1.9 0.97,3.82 -1.44,5.05 -2.86,1.46 -6.29,6.91 -5.67,10.38 q 0.42,2.32 3.15,4.64 1.55,1.32 5.9,5.48 a 1.31,1.3 50.2 0 1 -0.18,2.04 q -1.94,1.26 -4.84,1.64 a 0.53,0.54 82.4 0 1 -0.6,-0.45 z m -16.35,-21.61 q -4.2,0.69 -7.01,-3.55 -0.21,-0.31 -0.16,-0.66 0.04,-0.31 -0.01,-0.7 a 0.87,0.86 4 0 0 -0.64,-0.73 q -1.72,-0.47 -3.19,-0.19 a 0.78,0.78 0 0 0 -0.63,0.74 q -0.07,2.24 1.94,2.57 a 1.3,1.3 0 0 1 1.05,1.57 l -0.62,2.68 a 1.41,1.41 0 0 0 2.16,1.49 q 3.06,-2.05 6.21,-0.66 a 0.79,0.8 27.1 0 0 1,-0.33 q 0.37,-0.62 0.5,-1.65 a 0.53,0.52 88.8 0 0 -0.6,-0.58 z m 10.74,-4.3 a 2.04,2.03 24.6 0 0 -1.41,0.52 q -3.78,3.41 -6.01,8.74 -1.42,3.38 -0.15,8.82 a 1.14,1.13 6.8 0 0 0.61,0.77 q 2.56,1.25 4.47,0.13 a 0.75,0.75 0 0 0 -0.09,-1.34 c -1.36,-0.56 -2.25,-1.07 -2.47,-2.64 -0.83,-6.07 2.81,-10.13 7.28,-13.66 a 0.73,0.73 0 0 0 -0.44,-1.3 z m -13.7647,10.6172 a 1.89,1.14 85 0 0 -0.971,1.9822 1.89,1.14 85 0 0 1.3004,1.7834 1.89,1.14 85 0 0 0.971,-1.9822 1.89,1.14 85 0 0 -1.3004,-1.7834 z"
         data-svg-id="svg-elem-1769288224331-ea0zka2ck"
         id="svg-elem-1769288224331-ea0zka2ck" />
      <path
         fill="#3fb3da"
         d="m 52.417164,147.92937 a 0.62,0.62 0 0 1 -1.17,0.27 l -1.08,-2.23 a 1.03,1.03 0 0 0 -0.77,-0.56 q -2.73,-0.37 -3.84,-2.45 c -0.64,-1.19 -1.65,-1.34 -2.64,-0.95 a 0.79,0.79 0 0 1 -1.01,-1.05 l 2.12,-4.74 a 0.97,1.05 81.9 0 1 0.35,-0.43 l 5.09,-3.42 a 0.89,0.95 86.9 0 0 0.26,-0.27 q 1.45,-2.34 -0.32,-4.62 -2.25,-2.9 -6.74,-7.04 -1.92,-1.77 -3.56,-0.68 a 0.63,0.63 0 0 1 -0.97,-0.53 v -1.49 a 2.25,2.24 68 0 1 0.68,-1.61 q 1.36,-1.33 2.46,-0.35 2.55,2.26 5.38,4.48 a 4.56,4.56 0 0 1 0.8,0.8 c 1.95,2.5 3.28,5.16 5.85,7.39 a 1.06,1.07 52.4 0 1 -0.23,1.76 l -2.13,1.04 a 0.93,0.94 81.9 0 0 -0.52,0.69 q -0.5,3.14 -3.38,5.28 a 1.4,1.4 0 0 0 -0.43,1.74 q 1.9,3.93 5,4.36 a 0.93,0.93 0 0 1 0.8,0.92 z"
         data-svg-id="svg-elem-1769288224331-u2yrqed6j"
         id="svg-elem-1769288224331-u2yrqed6j" />
      <path
         fill="#9fe0ee"
         d="m 24.817164,128.99937 a 0.53,0.53 0 0 1 -0.53,-0.52 q -0.09,-5.03 4.62,-6.36 2.87,-0.82 4.64,-0.09 5.69,2.36 9.26,7.06 0.77,1.01 0.53,1.66 -0.21,0.58 -1.57,1.11 a 1.24,1.25 71.4 0 1 -1.66,-0.82 q -0.83,-3.07 -4.44,-5.34 c -3.9,-2.45 -6.67,-0.49 -9.13,2.66 q -0.27,0.35 -0.77,0.49 -0.48,0.14 -0.95,0.15 z"
         data-svg-id="svg-elem-1769288224331-veiq0pc9d"
         id="svg-elem-1769288224331-veiq0pc9d" />
      <path
         fill="#9fe0ee"
         d="m 21.397164,147.95937 c -5.26,-1.04 -6.31,-5.82 -3.43,-9.76 3.48,-4.76 6.47,-6.01 12.18,-3.65 a 1.15,1.15 0 0 1 -0.62,2.19 q -2.07,-0.32 -4.7,0 c -3.49,0.43 -6.35,3.63 -4.94,7.21 q 0.61,1.56 1.84,3.52 a 0.32,0.32 0 0 1 -0.33,0.49 z"
         data-svg-id="svg-elem-1769288224331-zb5yle2gp"
         id="svg-elem-1769288224331-zb5yle2gp" />
      <path
         id="svg-elem-1769288224331-f14hd1eb1"
         transform="rotate(-37.6)"
         style="fill:#ffffff"
         d="m 16.921426,185.78471 a 8.9300003,8.3199997 0 0 1 -8.9300005,8.32 8.9300003,8.3199997 0 0 1 -8.93000029,-8.32 8.9300003,8.3199997 0 0 1 8.93000029,-8.32 8.9300003,8.3199997 0 0 1 8.9300005,8.32 z" />
      <path
         fill="#9fe0ee"
         d="m 28.657164,141.21937 a 1.02,1.02 0 0 1 0.77,1.18 q -0.68,3.65 1.97,6.6 2.31,2.57 5.67,5.83 a 0.3,0.32 13.6 0 1 0.1,0.18 l 0.06,0.31 a 0.95,0.95 0 0 1 -1.33,1.04 q -2.04,-0.92 -2.53,-1.48 -3.99,-4.53 -8.23,-8.75 -1.47,-1.46 -0.36,-3.87 a 1.32,1.34 2.5 0 1 0.73,-0.68 q 1.72,-0.68 3.15,-0.36 z"
         data-svg-id="svg-elem-1769288224331-f1t3slla3"
         id="svg-elem-1769288224331-f1t3slla3" />
      <path
         fill="#9fe0ee"
         d="m 145.35716,151.15937 q 0.01,1.4 2.37,10.01 1.42,5.17 2.4,9.88 c 2.56,12.29 4.23,20.68 7.36,30.16 q 1.55,4.74 2.02,8.9 0.08,0.71 1.58,5.64 0.69,2.27 0.57,6.85 a 1,1 0 0 1 -1.46,0.87 l -2.96,-1.52 a 2.38,2.5 66.7 0 0 -0.57,-0.21 l -18.82,-4.31 a 1.94,1.95 9.1 0 1 -1.5,-2.08 q 1.01,-10.5 1.43,-15.62 0.77,-9.68 1.69,-15.47 1.67,-10.56 4.14,-31.21 0.17,-1.39 1.2,-2.16 a 0.34,0.34 0 0 1 0.55,0.27 z"
         data-svg-id="svg-elem-1769288224331-fockwvy4g"
         id="svg-elem-1769288224331-fockwvy4g" />
      <path
         fill="#9fe0ee"
         d="m 49.287164,169.84937 a 0.6,0.6 0 0 1 0.09,0.98 l -0.38,0.32 a 1.64,1.62 43.1 0 1 -2.06,0.06 q -3.87,-2.95 -6.68,-0.94 a 1.76,1.75 84.3 0 1 -2.62,-2.15 c 0.4,-0.89 0.7,-1.61 0.66,-2.28 q -0.25,-3.53 0.53,-8.13 a 2.94,2.93 83.2 0 1 1.73,-2.2 l 0.27,-0.13 a 0.88,0.88 0 0 1 1.27,0.81 l -0.19,8.49 a 1.49,1.5 15.3 0 0 0.76,1.34 z"
         data-svg-id="svg-elem-1769288224331-j15wnnjxz"
         id="svg-elem-1769288224331-j15wnnjxz" />
      <path
         fill="#ffffff"
         d="m 122.18716,161.29937 q -1.25,7.83 -3.64,15.32 -3.76,11.74 -4,12.6 -3.37,12.49 -3.48,12.8 a 1.26,1.26 0 0 0 1.04,1.65 q 1.64,0.21 4.02,-0.51 a 1.85,1.88 6.2 0 0 1.11,-0.91 q 1.69,-3.12 5.73,-4.93 a 1.23,1.23 0 0 1 1.53,1.8 q -0.76,1.16 -1.29,3.02 a 5.44,5.78 67.6 0 1 -0.65,1.44 q -6.74,10.68 -19.17,10.06 c -5.669996,-0.29 -7.879996,-5.84 -6.599996,-10.86 q 2.75,-10.76 6.609996,-22.75 c 1.23,-3.8 1.88,-7.74 2.83,-11.31 a 1.58,1.58 0 0 0 -1.95,-1.93 c -2.26,0.63 -3.84,2.77 -5.989996,5.17 a 2.09,2.02 41.5 0 1 -2.88,0.13 c -0.68,-0.58 -0.66,-1.59 -0.31,-2.37 q 3.11,-6.97 9.959996,-10.72 l 4.69,-1.46 a 1.44,1.46 44.6 0 1 0.8,-0.01 q 3.7,1.05 8.76,0.92 2.93,-0.08 2.88,2.85 z"
         data-svg-id="svg-elem-1769288224331-5d7fglq54"
         id="svg-elem-1769288224331-5d7fglq54" />
      <path
         fill="#3fb3da"
         d="m 31.797164,190.00937 q 0.37,-1.01 0.9,-1.57 a 0.73,0.72 21.5 0 0 -0.53,-1.22 h -11.58 a 3.44,3.46 69.7 0 1 -2.61,-1.19 q -2.47,-2.87 -3.84,-4.15 c -1.7,-1.59 -2.89,-3.18 -5.1499996,-1.72 a 1.55,1.46 69.1 0 1 -2.25,-1.09 q -0.37,-2 0.75,-4.03 a 2,1.97 87.1 0 1 0.55,-0.62 q 1.03,-0.73 2.4899996,-0.09 a 1.55,1.55 0 0 1 0.78,0.75 l 0.88,1.79 a 1.74,1.74 0 0 0 0.48,0.61 q 2.34,1.89 5.78,5.71 1.23,1.37 3.37,1.22 8.49,-0.61 15.27,-0.66 a 0.9,0.9 0 0 1 0.67,1.5 q -1.84,2.02 -1.6,4.1 a 0.93,0.92 85 0 1 -0.86,1.03 l -3.06,0.21 a 0.43,0.44 7.6 0 1 -0.44,-0.58 z"
         data-svg-id="svg-elem-1769288224331-6zgl37ghw"
         id="svg-elem-1769288224331-6zgl37ghw" />
      <path
         fill="#3fb3da"
         d="m 56.527164,174.20937 a 0.61,0.68 35.6 0 1 0.13,1.15 q -2.59,2.01 -3.2,5.29 a 0.92,0.92 0 0 1 -1.69,0.32 q -0.73,-1.16 -1.07,-2.68 a 1,1.01 62 0 1 0.29,-0.94 q 1.11,-1.04 3.92,-2.69 1.04,-0.61 1.62,-0.45 z"
         data-svg-id="svg-elem-1769288224331-sjsnjlu84"
         id="svg-elem-1769288224331-sjsnjlu84" />
      <path
         fill="#9fe0ee"
         d="m 42.187164,192.17937 -2.01,-0.46 a 0.88,0.88 0 0 1 -0.37,-1.53 c 2.22,-1.91 3.78,-3.48 6.32,-3.28 a 0.58,0.58 0 0 1 0.46,0.87 l -1.92,3.31 a 2.28,2.28 0 0 1 -2.48,1.09 z"
         data-svg-id="svg-elem-1769288224331-qju850l0x"
         id="svg-elem-1769288224331-qju850l0x" />
      <path
         fill="#9fe0ee"
         d="m 21.997164,195.47937 q -0.45,-0.04 -6.99,-0.36 -2.01,-0.09 -5.4499996,-4.15 a 1.46,1.46 0 0 1 0.38,-2.21 l 0.2599996,-0.14 a 2.43,2.42 59.9 0 1 3.32,0.89 l 1.21,2.1 a 1.25,1.26 78.8 0 0 0.93,0.62 l 6.28,0.8 a 1.22,1.22 0 0 1 1.05,1.04 l 0.05,0.35 a 0.97,0.98 89.3 0 1 -1.04,1.06 z"
         data-svg-id="svg-elem-1769288224331-mad8brmnf"
         id="svg-elem-1769288224331-mad8brmnf" />
      <path
         fill="#9fe0ee"
         d="m 44.487164,228.19937 q 2.9,-0.38 4.84,-1.64 a 1.31,1.3 50.2 0 0 0.18,-2.04 q -4.35,-4.16 -5.9,-5.48 -2.73,-2.32 -3.15,-4.64 c -0.62,-3.47 2.81,-8.92 5.67,-10.38 2.41,-1.23 2.55,-3.15 1.44,-5.05 a 1.07,1.07 0 0 0 -0.97,-0.52 q -13.72,0.72 -15.99,0.56 -2.39,-0.17 -4.49,-1.96 a 1.19,1.17 21.4 0 1 -0.43,-0.97 c 0.06,-1.53 1.27,-2.94 3,-2.46 q 0.51,0.15 2.51,1.28 2.02,1.14 5.36,1.06 5.02,-0.11 10.67,-0.33 a 1.66,1.69 23.9 0 0 1.04,-0.41 l 1.54,-1.33 a 0.78,0.78 0 0 1 1.27,0.79 q -0.67,2.6 -0.51,4.49 c 0.24,2.92 -0.23,5.23 -2.48,6.82 -3.12,2.2 -6.1,5.84 -3.44,9.66 q 3.28,4.74 7.64,6.91 a 1.47,1.48 8.1 0 1 0.79,1.06 q 0.18,1.01 0.19,2.99 c 0.02,3.4 -5.38,4.5 -8.03,4.27 -1.3,-0.11 -1.41,-0.94 -1.56,-1.93 a 0.67,0.67 0 0 0 -0.7,-0.57 q -3.37,0.21 -4.66,-3.43 a 1.41,1.44 48.8 0 1 0.09,-1.17 q 0.68,-1.27 1.72,-1.81 a 0.93,0.94 56.1 0 1 1.14,0.22 q 2.22,2.66 2.62,5.56 a 0.53,0.54 82.4 0 0 0.6,0.45 z"
         data-svg-id="svg-elem-1769288224331-cfucbeti1"
         id="svg-elem-1769288224331-cfucbeti1" />
      <path
         fill="#9fe0ee"
         d="m 28.137164,206.71937 q -0.13,1.03 -0.5,1.65 a 0.79,0.8 27.1 0 1 -1,0.33 q -3.15,-1.39 -6.21,0.66 a 1.41,1.41 0 0 1 -2.16,-1.49 l 0.62,-2.68 a 1.3,1.3 0 0 0 -1.05,-1.57 q -2.01,-0.33 -1.94,-2.57 a 0.78,0.78 0 0 1 0.63,-0.74 q 1.47,-0.28 3.19,0.19 a 0.87,0.86 4 0 1 0.64,0.73 q 0.05,0.39 0.01,0.7 -0.05,0.35 0.16,0.66 2.81,4.24 7.01,3.55 a 0.53,0.52 88.8 0 1 0.6,0.58 z"
         data-svg-id="svg-elem-1769288224331-295zwfx8z"
         id="svg-elem-1769288224331-295zwfx8z" />
      <path
         fill="#9fe0ee"
         d="m 40.507164,203.17937 c -4.47,3.53 -8.11,7.59 -7.28,13.66 0.22,1.57 1.11,2.08 2.47,2.64 a 0.75,0.75 0 0 1 0.09,1.34 q -1.91,1.12 -4.47,-0.13 a 1.14,1.13 6.8 0 1 -0.61,-0.77 q -1.27,-5.44 0.15,-8.82 2.23,-5.33 6.01,-8.74 a 2.04,2.03 24.6 0 1 1.41,-0.52 l 1.79,0.04 a 0.73,0.73 0 0 1 0.44,1.3 z"
         data-svg-id="svg-elem-1769288224331-pexrlxa4w"
         id="svg-elem-1769288224331-pexrlxa4w" />
      <path
         id="svg-elem-1769288224331-2osz0673v"
         transform="rotate(-95)"
         style="fill:#9fe0ee"
         d="m -213.7845,5.9023533 a 1.89,1.14 0 0 1 -1.89,1.14 1.89,1.14 0 0 1 -1.89,-1.14 1.89,1.14 0 0 1 1.89,-1.14 1.89,1.14 0 0 1 1.89,1.14 z" />
      <path
         fill="#9fe0ee"
         d="m 72.177164,272.07937 -0.14,-31.75 q 0.65,2.13 1.94,1.16 8.84,-6.68 12.7,-9.07 16.369996,-10.16 17.389996,-11.45 a 0.59,0.59 0 0 1 0.74,-0.16 q 0.55,0.28 0.63,0.88 a 0.51,0.52 79.6 0 1 -0.39,0.55 q -1.51,0.36 -2.78,2.27 -4.689996,7.01 -7.649996,13.09 c -2.81,5.77 -8.48,13.25 -11.89,19.11 q -2.96,5.09 -6.92,10.02 c -1.27,1.59 -3.26,2.75 -3.63,5.35 z"
         data-svg-id="svg-elem-1769288224331-z04dngazz"
         id="svg-elem-1769288224331-z04dngazz" />
    </g>
  </g>
</svg>
