<?xml version="1.0" encoding="UTF-8" standalone="no"?>
<svg
   version="1.1"
   viewBox="-20.5 -20.5 512 512"
   id="svg1"
   sodipodi:docname="ICON_LOGO.svg"
   inkscape:version="1.4.2 (f4327f4, 2025-05-13)"
   width="512"
   height="512"
   xmlns:inkscape="http://www.inkscape.org/namespaces/inkscape"
   xmlns:sodipodi="http://sodipodi.sourceforge.net/DTD/sodipodi-0.dtd"
   xmlns="http://www.w3.org/2000/svg"
   xmlns:svg="http://www.w3.org/2000/svg">
  <defs
     id="defs1" />
  <sodipodi:namedview
     id="namedview1"
     pagecolor="#ffffff"
     bordercolor="#000000"
     borderopacity="0.25"
     inkscape:showpageshadow="2"
     inkscape:pageopacity="0.0"
     inkscape:pagecheckerboard="0"
     inkscape:deskcolor="#d1d1d1"
     inkscape:zoom="0.99393382"
     inkscape:cx="253.53801"
     inkscape:cy="227.88238"
     inkscape:window-width="1031"
     inkscape:window-height="981"
     inkscape:window-x="-8"
     inkscape:window-y="0"
     inkscape:window-maximized="0"
     inkscape:current-layer="svg1" />
  <g
     id="g1">
    <path
       id="svg-elem-1769288067677-j271r73ra"
       style="fill:#0e2b47;stroke-width:1.13684"
       transform="rotate(29.2)"
       d="m 205.02633,-134.78958 h 15.68841 c 0.42197,0 0.76168,0.33971 0.76168,0.76168 v 6.43452 c 0,0.42198 -0.33971,0.76169 -0.76168,0.76169 h -15.68841 c -0.42197,0 -0.76168,-0.33971 -0.76168,-0.76169 v -6.43452 c 0,-0.42197 0.33971,-0.76168 0.76168,-0.76168 z" />
    <path
       fill="#0e2b47"
       d="m 221.52254,-13.58791 2.75115,4.7861 a 1.1936831,1.1936831 0 0 1 -0.432,1.62569 l -12.83493,7.4122 a 1.1936831,1.1936831 0 0 1 -1.62568,-0.44337 l -2.76253,-4.77473 a 1.1936831,1.1936831 0 0 1 0.44337,-1.62568 l 12.82357,-7.41221 a 1.1936831,1.1936831 0 0 1 1.63705,0.432 z"
       data-svg-id="svg-elem-1769288067677-bt153ogai"
       id="svg-elem-1769288067677-bt153ogai"
       style="stroke-width:1.13684" />
    <path
       id="svg-elem-1769288067677-rtqcnhxbs"
       style="fill:#0e2b47;stroke-width:1.13684"
       transform="rotate(29.2)"
       d="m 233.77365,-134.56367 h 15.50651 c 0.43457,0 0.78442,0.34985 0.78442,0.78442 v 6.04799 c 0,0.43457 -0.34985,0.78442 -0.78442,0.78442 h -15.50651 c -0.43457,0 -0.78442,-0.34985 -0.78442,-0.78442 v -6.04799 c 0,-0.43457 0.34985,-0.78442 0.78442,-0.78442 z" />
    <path
       fill="#0e2b47"
       d="m 184.52973,15.06049 q -3.72884,-7.5941 -0.93221,-8.37852 L 194.2952,0.47482 a 2.5124188,2.5124188 0 0 1 3.44462,0.92084 l 1.63706,2.83073 a 2.4669451,2.4555767 61 0 1 -0.96632,3.39916 z"
       data-svg-id="svg-elem-1769288067677-h2jgaqu8m"
       id="svg-elem-1769288067677-h2jgaqu8m"
       style="stroke-width:1.13684" />
    <path
       fill="#42b5dd"
       d="m 271.04334,23.05248 16.79114,9.5722 54.28416,31.19492 22.77093,12.82357 28.05723,16.12041 q 8.32168,4.06989 16.65472,8.93557 12.55073,7.32125 16.07494,9.18567 9.77683,5.19537 16.01809,9.45852 a 1.909893,1.9326298 16.9 0 1 0.84126,1.59158 q 0.0341,19.73556 0.30695,29.48965 0,0.0455 0.51158,9.3221 c 0.40926,7.45768 -0.53432,14.82441 -0.31832,22.28209 -0.35242,15.84756 -1.04589,29.76249 -0.0455,47.37216 q 0.0227,5.88884 -0.15916,11.66399 -0.72758,22.33893 0.0682,44.64375 -0.57979,2.98989 -0.61389,5.95705 -0.32969,23.48713 0.0455,46.9288 l 0.10231,9.87915 q -0.78442,1.22778 -1.22778,-1.08 -0.95495,-5.01347 -2.63747,-9.90189 a 5.2294689,5.593258 30.3 0 1 -0.25011,-1.10273 c -0.51158,-4.77474 -2.33052,-9.56084 -3.28547,-13.6762 q -3.95621,-17.08672 -9.81094,-39.7667 c -2.72842,-10.58399 -4.60421,-22.45261 -7.51452,-32.42271 -0.65937,-2.21684 -0.65937,-4.24042 -1.26189,-6.11621 q -0.84126,-2.60336 -1.21642,-4.29725 -0.38653,-1.73937 -3.024,-12.65305 -7.26441,-29.92165 -7.34399,-30.29681 -1.89853,-9.61768 -1.96674,-9.92462 a 0.70484146,0.69347305 59.3 0 0 -1.22779,-0.31832 q -0.50021,0.62526 -0.61389,1.65979 -2.08042,19.49682 -5.4,40.15323 c -1.84168,11.44799 -2.4101,22.91871 -4.25178,33.4686 -2.11452,12.07325 -3.19452,25.20376 -3.91073,37.43617 q -0.32969,5.45684 -2.17137,18.32588 -0.94358,6.63915 -1.62568,16.79114 a 1.71663,1.71663 0 0 0 1.28463,1.77348 l 56.86479,14.69935 q -4.61558,3.56968 -9.3221,6.25263 -8.77641,5.0021 -8.95831,5.10441 -13.93767,8.58315 -28.13681,16.23409 -13.6421,6.68463 -26.03366,14.7221 l -28.13682,16.24545 c -10.94778,6.32084 -22.50945,13.61936 -32.92292,18.8943 q -11.56167,5.85473 -19.01935,10.75452 -4.64968,3.0581 -10.53851,5.76378 c -11.90273,5.47958 -23.18019,12.15283 -34.46903,18.58736 a 0.62526259,0.59115735 41.4 0 1 -0.54568,0.0227 q -1.15958,-0.54568 -0.2501,-2.58063 9.90188,-13.23283 12.95998,-17.92798 1.4779,-2.26231 9.16294,-15.74525 a 2.9216815,2.8648395 88 0 1 0.87537,-0.95495 q 0.94358,-0.648 1.3301,-2.42147 a 2.739787,2.796629 68.8 0 1 0.48885,-1.08 q 7.63957,-10.16336 13.50567,-20.95198 4.92252,-9.03788 9.53809,-16.1204 12.25515,-18.82609 15.09725,-23.98735 c 2.19411,-4.01305 5.76379,-8.62862 8.53768,-13.39199 q 0.26147,-0.44337 1.21642,-1.03452 l 0.63663,-1.64842 a 1.2164199,1.2164199 0 0 0 -0.091,-1.06863 q -3.43326,-5.62737 -4.29726,-12.18694 a 0.92084126,0.92084126 0 0 1 0.45474,-0.92084 l 2.66021,-1.56884 q 14.74483,0.6821 26.76124,-9.68589 11.70946,-10.10651 16.16588,-23.14608 a 1.6143143,1.6143143 0 0 0 -0.90948,-2.02358 l -5.33178,-2.1941 a 1.8871562,1.8985246 22.5 0 0 -2.46695,1.02316 c -2.52378,6.1162 -8.25346,15.64293 -16.09766,15.27914 a 3.4901021,3.5128389 86.5 0 1 -3.28548,-2.88758 q -0.38652,-2.31915 0.22737,-5.16126 1.06863,-4.89978 7.38947,-26.62481 0.0455,-0.15916 4.37684,-16.40462 2.38736,-8.93557 5.42273,-17.70062 1.92126,-5.53641 4.64968,-22.91871 c 12.94862,-9.04926 26.18145,-21.3044 26.68166,-38.4366 0.70484,-24.15787 -21.57724,-35.08291 -42.88165,-33.4686 -17.91661,1.34147 -27.98902,11.47073 -38.2547,25.51071 a 0.89810444,0.90947285 48.6 0 0 -0.0682,0.96632 q 2.83074,5.32042 5.38863,11.11831 c 2.46694,5.61599 5.13852,9.68588 7.46904,14.65388 q 0.10232,0.216 3.52421,6.43452 1.86442,3.42189 2.93305,6.74146 c -12.1983,4.38821 -20.12208,13.98315 -24.21471,25.78356 a 0.92084126,0.92084126 0 0 0 0.38652,1.08 q 2.592,1.65979 6.264,2.08042 a 1.3528409,1.3414725 19.7 0 0 1.296,-0.60253 c 3.17178,-4.97936 5.51368,-9.50399 9.53809,-11.39114 q 3.86526,-1.81895 7.44631,-0.29558 a 2.6147344,2.603366 13.1 0 1 1.58021,2.52378 q -0.17053,3.61516 -1.00042,6.33221 -4.91115,16.06356 -9.09473,32.11576 -1.30736,5.01347 -5.47957,18.21219 -2.78526,8.79915 -4.92252,18.38272 -4.58147,-4.79747 -8.08294,-13.47156 -2.21684,-5.46821 -17.10946,-31.8884 -8.93557,-15.8703 -16.75704,-31.88839 c -2.21684,-4.53599 -5.14989,-8.37852 -6.78694,-12.57346 -0.85263,-2.18274 -2.68294,-4.50189 -3.96758,-7.11663 a 3.6378914,3.5924178 7.8 0 0 -0.86399,-1.12547 q -2.54653,-2.18273 -2.47832,-5.0362 0.15916,-6.9461 -0.19326,-13.88083 c 0.19326,-14.42652 0.71621,-29.04629 0.50021,-43.23407 -0.34105,-22.42987 -0.93221,-44.85975 -0.54568,-67.28962 q 0.32968,-1.12547 0.65936,-1.12547 0.95495,0.0227 1.43242,0.88673 5.70695,10.49304 11.49347,19.71283 c 6.86652,10.93641 14.44925,26.56797 21.0884,36.92459 q 6.04799,9.43578 10.35662,18.76925 a 0.98905173,0.98905173 0 0 0 1.68252,0.19326 q 3.64926,-4.69515 6.27537,-9.53809 c 3.29684,-6.05937 7.83283,-12.52799 10.41346,-17.12083 q 5.97979,-10.66357 11.45936,-17.29135 a 0.2159998,0.22736821 37.5 0 1 0.30695,-0.0455 l 0.0227,0.0114 a 0.3183155,0.3183155 0 0 1 0.091,0.42063 l -9.12883,15.16546 a 1.2846304,1.5802091 64.9 0 0 -0.15916,0.32969 q -1.02316,2.79663 -3.85389,6.62778 -2.63747,3.54694 -6.76421,11.23199 c -1.70526,3.19452 -3.01263,4.5701 -4.99073,7.55999 a 0.60252576,0.60252576 0 0 0 0.42063,0.93221 c 1.19369,0.15916 2.41011,-1.05726 3.58105,-1.50063 q 11.70946,-4.36547 31.72924,-12.15283 c 3.43326,-1.3301 6.25262,-3.10357 9.62904,-4.24042 q 4.05852,-1.36421 14.5402,-5.61599 c 8.78778,-3.56968 18.26903,-6.52547 27.21597,-10.41346 q 1.71663,-0.73895 6.048,-1.944 a 0.54568371,0.54568371 0 0 0 0.27284,-0.87537 q -0.38653,-0.44337 -0.94358,-0.57979 c -15.67704,-3.83115 -39.86902,-8.9242 -60.61637,-14.3583 a 2.0008403,2.0008403 0 0 1 -0.96631,-0.57979 Q 303.95485,78.42799 287.3115,57.86253 284.36708,54.22464 281.26351,50.8937 C 276.30688,45.58465 270.82731,39.66171 266.0071,33.67056 Q 256.82142,22.29078 246.2147,12.17289 c -1.30737,-1.25052 -3.36505,-1.70526 -2.78526,-4.22905 z"
       data-svg-id="svg-elem-1769288067677-b4cao35kq"
       id="svg-elem-1769288067677-b4cao35kq"
       style="stroke-width:1.13684" />
    <path
       fill="#0e2b47"
       d="m 228.4118,22.33627 -0.20464,105.78306 0.13643,50.88501 -0.13643,55.90984 -0.11368,159.11228 0.0114,52.90858 0.0114,17.14356 a 0.47747325,0.47747325 0 0 1 -0.70484,0.42063 L 196.80767,447.53757 181.31253,438.31779 128.961,408.56665 98.25492,391.58225 30.24909,352.45218 a 2.5351556,2.5351556 0 0 1 -1.27326,-2.16 l -0.13642,-12.48251 -0.36379,-215.7156 a 1.4324197,1.4210513 75.2 0 1 0.71621,-1.23915 L 77.91684,92.85452 104.93955,77.62085 130.05237,63.52402 183.2679,33.159 207.10745,19.40322 227.10449,8.67144 a 0.71620987,0.71620987 0 0 1 1.05726,0.6139 z M 92.26371,226.21735 70.22036,226.18325 a 2.7170501,2.7056817 61.3 0 1 -1.46652,-0.432 c -1.43242,-0.97768 -1.6939,-2.81936 -3.49011,-3.55831 q -4.00168,-1.61431 -7.17346,0.29558 c -3.69474,2.21684 -4.22905,7.66231 -1.25053,10.69767 q 2.23958,2.27369 6.80968,1.60295 c 2.64884,-0.38653 4.02442,-3.76294 6.52547,-3.79705 q 9.64041,-0.13642 17.00714,-0.38653 a 0.93220967,0.93220967 0 0 1 0.77305,1.4779 q -5.02484,6.82104 -5.50231,14.88125 c -0.19326,3.17178 -0.28421,6.60504 1.09137,9.8223 q 2.05768,4.82021 4.94526,8.40126 a 2.1372612,2.159998 34.4 0 1 0.36379,2.03494 c -4.41095,13.41473 0.45473,28.44377 13.30104,35.08292 a 1.8303141,1.8189457 17.5 0 1 0.97768,1.86442 q -0.78442,6.00252 0.67074,11.39115 4.3541,16.04082 20.30398,19.83787 a 1.2277883,1.2505252 0.4 0 1 0.90947,0.93221 c 3.37642,15.17683 15.30188,27.47745 31.45639,27.80714 a 2.2736821,2.2509453 73.4 0 1 1.83032,1.00042 q 7.28715,10.83409 15.71114,15.89303 c 10.1861,6.11621 25.77219,6.35495 35.37849,-1.3301 8.81052,-7.05978 11.9482,-16.0863 11.60715,-27.07955 -0.26147,-8.37852 -0.73894,-15.8021 -0.59116,-24.20335 q 0.42064,-22.8164 0.216,-29.64882 -0.48884,-16.39324 -0.26147,-22.6345 0.46611,-13.01683 0.19326,-22.64588 -0.32968,-11.82314 0.0114,-37.6408 0.12506,-9.58357 -0.0341,-15.19957 c -0.25011,-8.37852 0.20463,-17.56419 -0.0227,-26.9886 -0.52295,-21.12251 -0.0455,-35.70818 0.0682,-62.02605 q 0.0227,-5.93431 -1.87579,-9.56084 -8.2762,-15.76798 -26.28376,-15.4383 -8.87873,0.15916 -12.00504,0.78442 -13.6762,2.76253 -22.05472,14.33557 -0.65937,0.90947 -3.93347,6.63915 a 1.2391568,1.2164199 12.3 0 1 -0.95495,0.60253 c -15.50651,1.37557 -28.17092,14.26735 -30.06944,29.60334 a 2.3418926,2.4328399 66.3 0 1 -0.46611,1.13684 q -1.30737,1.7621 -4.22905,3.54694 a 1.3528409,1.3528409 0 0 1 -1.81894,-0.37516 l -4.02442,-5.77515 a 3.2968391,3.3195759 27.4 0 1 -0.61389,-1.95536 l 0.15915,-20.49725 a 2.796629,2.8193658 60 0 1 0.38653,-1.42105 q 0.44337,-0.87537 1.89852,-2.12589 c 4.70653,-4.04716 0.54569,-11.87999 -4.8202,-12.09599 -5.62737,-0.22737 -8.08294,4.8202 -6.42315,9.98146 q 0.26147,0.80716 2.31915,2.39874 1.90989,1.47789 1.98947,5.01347 0.10232,4.86568 0.17053,22.25934 a 5.1612584,5.1271532 24.3 0 0 1.30737,3.4219 l 4.94526,5.58189 a 1.1141042,1.1368411 42.7 0 1 0.0455,1.42105 c -7.13936,9.25388 -10.85683,17.95072 -8.62862,29.95576 a 1.0458938,1.0345254 66.1 0 1 -0.38653,1.01179 q -11.81178,9.31073 -14.09683,23.33934 a 1.8303141,1.8416825 4.6 0 1 -1.80758,1.54611 H 80.04276 A 1.0572622,1.0686306 0 0 1 78.9855,203.90117 V 183.0515 a 2.9444184,2.9216815 70 0 1 1.03452,-2.23957 q 4.91116,-4.16084 0.98905,-9.31073 -2.97852,-3.89937 -7.6282,-1.78484 -5.08168,2.29642 -3.53558,7.81009 c 0.48885,1.73937 2.73979,2.7739 3.29684,4.68379 q 0.3979,1.36421 0.36379,3.87663 -0.20463,14.3583 0.0114,22.73682 a 1.6370511,1.6484195 89.4 0 0 1.64842,1.60295 h 13.8922 a 1.079999,1.079999 0 0 1 1.05726,0.87536 l 2.808,14.1082 a 0.67073623,0.67073623 0 0 1 -0.65937,0.80716 z"
       data-svg-id="svg-elem-1769288067677-be395511j"
       id="svg-elem-1769288067677-be395511j"
       style="stroke-width:1.13684" />
    <path
       fill="#9fddee"
       d="m 243.42947,7.94386 c -0.57979,2.52379 1.47789,2.97853 2.78526,4.22905 q 10.60672,10.11789 19.7924,21.49767 c 4.82021,5.99115 10.29978,11.91409 15.25641,17.22314 q 3.10357,3.33094 6.04799,6.96883 16.64335,20.56546 36.77681,42.52923 a 2.0008403,2.0008403 0 0 0 0.96631,0.57979 c 20.74735,5.4341 44.93933,10.52715 60.61637,14.3583 q 0.55705,0.13642 0.94358,0.57979 a 0.54568371,0.54568371 0 0 1 -0.27284,0.87537 q -4.33137,1.20505 -6.048,1.944 c -8.94694,3.88799 -18.42819,6.84378 -27.21597,10.41346 q -10.48168,4.25178 -14.5402,5.61599 c -3.37642,1.13685 -6.19578,2.91032 -9.62904,4.24042 q -20.01978,7.78736 -31.72924,12.15283 c -1.17094,0.44337 -2.38736,1.65979 -3.58105,1.50063 a 0.60252576,0.60252576 0 0 1 -0.42063,-0.93221 c 1.9781,-2.98989 3.28547,-4.36547 4.99073,-7.55999 q 4.12674,-7.68505 6.76421,-11.23199 2.83073,-3.83115 3.85389,-6.62778 a 1.2846304,1.5802091 64.9 0 1 0.15916,-0.32969 l 9.12883,-15.16546 a 0.3183155,0.3183155 0 0 0 -0.091,-0.42063 l -0.0227,-0.0114 a 0.2159998,0.22736821 37.5 0 0 -0.30695,0.0455 q -5.47957,6.62778 -11.45936,17.29135 c -2.58063,4.59284 -7.11662,11.06146 -10.41346,17.12083 q -2.62611,4.84294 -6.27537,9.53809 a 0.98905173,0.98905173 0 0 1 -1.68252,-0.19326 q -4.30863,-9.33347 -10.35662,-18.76925 c -6.63915,-10.35662 -14.22188,-25.98818 -21.0884,-36.92459 q -5.78652,-9.21979 -11.49347,-19.71283 -0.47747,-0.864 -1.43242,-0.88673 -0.32968,0 -0.65936,1.12547 l -0.3979,-3.16042 c 1.296,-6.68463 0.89811,-13.99451 1.04589,-26.42019 0.0682,-6.25262 -0.32968,-17.66651 0.25011,-26.44292 q 0.0341,-0.44337 -0.35242,-1.13684 L 242.66776,9.94469 a 1.0458938,1.079999 54.7 0 1 0.10232,-0.54568 z"
       data-svg-id="svg-elem-1769288067677-5pbq7jqpz"
       id="svg-elem-1769288067677-5pbq7jqpz"
       style="stroke-width:1.13684" />
    <path
       fill="#0e2b47"
       d="m 309.07067,20.22175 q -2.28505,1.69389 -3.03537,3.79705 a 1.2505252,1.2505252 0 0 1 -1.7621,0.69347 l -8.38989,-4.45642 q -2.75115,-1.12547 -4.99073,-3.04673 a 1.1482095,1.1254727 35.9 0 1 -0.23874,-1.43242 l 2.41011,-4.18358 a 1.3528409,1.3528409 0 0 1 1.65979,-0.57979 q 8.90146,3.44463 14.34693,9.20842 z"
       data-svg-id="svg-elem-1769288067677-yom6kabor"
       id="svg-elem-1769288067677-yom6kabor"
       style="stroke-width:1.13684" />
    <path
       fill="#0e2b47"
       d="m 173.20679,22.14301 -11.20925,6.16168 a 1.330104,1.3414725 60.9 0 1 -1.80758,-0.51158 l -3.22862,-5.69558 13.86946,-7.88967 a 1.1709463,1.1709463 0 0 1 1.59157,0.432 l 2.808,4.86568 a 1.0458938,1.0345254 49.6 0 1 -0.0909,1.18231 q -0.55705,0.68211 -1.93263,1.45516 z"
       data-svg-id="svg-elem-1769288067677-b1n6y4y2z"
       id="svg-elem-1769288067677-b1n6y4y2z"
       style="stroke-width:1.13684" />
    <path
       id="svg-elem-1769288067677-bch6j5o0z"
       style="fill:#0e2b47;stroke-width:1.13684"
       transform="rotate(29.7)"
       d="m 290.03377,-136.85094 h 15.4383 c 0.50385,0 0.90948,0.40563 0.90948,0.90948 v 5.70694 c 0,0.50385 -0.40563,0.90947 -0.90948,0.90947 h -15.4383 c -0.50385,0 -0.90947,-0.40562 -0.90947,-0.90947 v -5.70694 c 0,-0.50385 0.40562,-0.90948 0.90947,-0.90948 z" />
    <path
       id="svg-elem-1769288067677-wlnqyk8ea"
       style="fill:#0e2b47;stroke-width:1.13684"
       transform="rotate(-28.9)"
       d="m 99.772231,94.968796 h 14.778929 c 0.76837,0 1.38695,0.618578 1.38695,1.386946 v 5.093048 c 0,0.76837 -0.61858,1.38695 -1.38695,1.38695 H 99.772231 c -0.768369,0 -1.386947,-0.61858 -1.386947,-1.38695 v -5.093048 c 0,-0.768368 0.618578,-1.386946 1.386947,-1.386946 z" />
    <path
       fill="#0e2b47"
       d="m 342.14138,46.59646 q -1.17095,-0.38653 -1.53474,-1.10274 -0.30695,-0.60252 0.32968,-1.77347 1.27327,-2.30779 1.06864,-3.85389 1.52336,-1.59158 3.72883,-0.29558 6.02526,3.54695 11.78905,6.83242 a 1.1823147,1.1823147 0 0 1 0.44336,1.63705 l -2.51242,4.3541 a 1.1027358,1.1027358 0 0 1 -1.46652,0.432 z"
       data-svg-id="svg-elem-1769288067677-3r2dbrm4h"
       id="svg-elem-1769288067677-3r2dbrm4h"
       style="stroke-width:1.13684" />
    <path
       id="svg-elem-1769288067677-2c3qb64ba"
       style="fill:#0e2b47;stroke-width:1.13684"
       transform="rotate(-29.9)"
       d="M 70.395376,96.920151 H 84.74231 c 0.680195,0 1.227788,0.547593 1.227788,1.227788 v 5.161261 c 0,0.68019 -0.547593,1.22779 -1.227788,1.22779 H 70.395376 c -0.680195,0 -1.227789,-0.5476 -1.227789,-1.22779 v -5.161261 c 0,-0.680195 0.547594,-1.227788 1.227789,-1.227788 z" />
    <path
       id="svg-elem-1769288067677-woho3h5rc"
       style="fill:#0e2b47;stroke-width:1.13684"
       transform="rotate(29.9)"
       d="m 346.34748,-138.33427 h 15.48377 c 0.49755,0 0.8981,0.40055 0.8981,0.8981 v 5.8661 c 0,0.49755 -0.40055,0.8981 -0.8981,0.8981 h -15.48377 c -0.49755,0 -0.89811,-0.40055 -0.89811,-0.8981 v -5.8661 c 0,-0.49755 0.40056,-0.8981 0.89811,-0.8981 z" />
    <path
       id="svg-elem-1769288067677-688dwhh14"
       style="fill:#0e2b47;stroke-width:1.13684"
       transform="rotate(-30.5)"
       d="m 40.62695,97.170738 h 14.892617 c 0.62981,0 1.136841,0.507031 1.136841,1.136841 v 5.570521 c 0,0.62981 -0.507031,1.13684 -1.136841,1.13684 H 40.62695 c -0.62981,0 -1.136842,-0.50703 -1.136842,-1.13684 v -5.570521 c 0,-0.62981 0.507032,-1.136841 1.136842,-1.136841 z" />
    <path
       fill="#0e2b47"
       d="m 393.17417,66.72991 7.25305,4.43368 a 5.9684156,5.6614685 69.7 0 0 0.8981,0.44337 q 3.86526,1.52337 6.74147,3.86526 l -3.30821,5.44547 a 1.2618936,1.2618936 0 0 1 -1.92126,0.29558 q -3.25136,-2.88758 -7.01431,-3.84252 -3.96757,-3.18316 -6.83241,-3.12632 z"
       data-svg-id="svg-elem-1769288067677-k63fzl8tm"
       id="svg-elem-1769288067677-k63fzl8tm"
       style="stroke-width:1.13684" />
    <path
       fill="#0e2b47"
       d="m 73.01699,69.45833 4.47915,6.15031 -13.14188,8.13979 a 1.6711564,1.6711564 0 0 1 -2.33052,-0.59116 l -2.22821,-3.85389 a 1.9439982,1.9553666 59.9 0 1 0.71621,-2.66021 z"
       data-svg-id="svg-elem-1769288067677-hngr14r7r"
       id="svg-elem-1769288067677-hngr14r7r"
       style="stroke-width:1.13684" />
    <path
       id="svg-elem-1769288067677-bg8ocsw78"
       style="fill:#0e2b47;stroke-width:1.13684"
       transform="rotate(28.9)"
       d="m 405.89222,-131.31744 h 14.05135 c 0.85025,0 1.53474,0.68449 1.53474,1.53473 v 4.63831 c 0,0.85025 -0.68449,1.53474 -1.53474,1.53474 h -14.05135 c -0.85025,0 -1.53474,-0.68449 -1.53474,-1.53474 v -4.63831 c 0,-0.85024 0.68449,-1.53473 1.53474,-1.53473 z" />
    <path
       id="svg-elem-1769288067677-fq0wudr0u"
       style="fill:#0e2b47;stroke-width:1.13684"
       transform="rotate(-30.8)"
       d="m -16.286097,96.762444 h 14.5970394 c 0.71798335,0 1.29599882,0.578015 1.29599882,1.295998 v 5.161258 c 0,0.71798 -0.57801547,1.296 -1.29599882,1.296 H -16.286097 c -0.717984,0 -1.295999,-0.57802 -1.295999,-1.296 v -5.161258 c 0,-0.717983 0.578015,-1.295998 1.295999,-1.295998 z" />
    <path
       fill="#6ac0df"
       d="m 92.92308,225.41019 -2.808,-14.1082 a 1.079999,1.079999 0 0 0 -1.05726,-0.87536 h -13.8922 a 1.6370511,1.6484195 89.4 0 1 -1.64842,-1.60295 q -0.216,-8.37852 -0.0114,-22.73682 0.0341,-2.51242 -0.36379,-3.87663 c -0.55705,-1.90989 -2.80799,-2.94442 -3.29684,-4.68379 q -1.5461,-5.51367 3.53558,-7.81009 4.64968,-2.11453 7.6282,1.78484 3.92211,5.14989 -0.98905,9.31073 a 2.9444184,2.9216815 70 0 0 -1.03452,2.23957 v 20.84967 a 1.0572622,1.0686306 0 0 0 1.05726,1.06863 h 9.26525 a 1.8303141,1.8416825 4.6 0 0 1.80758,-1.54611 q 2.28505,-14.02861 14.09683,-23.33934 a 1.0458938,1.0345254 66.1 0 0 0.38653,-1.01179 c -2.22821,-12.00504 1.48926,-20.70188 8.62862,-29.95576 a 1.1141042,1.1368411 42.7 0 0 -0.0455,-1.42105 l -4.94526,-5.58189 a 5.1612584,5.1271532 24.3 0 1 -1.30737,-3.4219 q -0.0682,-17.39366 -0.17053,-22.25934 -0.0796,-3.53558 -1.98947,-5.01347 -2.05768,-1.59158 -2.31915,-2.39874 c -1.65979,-5.16126 0.79578,-10.20883 6.42315,-9.98146 5.36589,0.216 9.52673,8.04883 4.8202,12.09599 q -1.45515,1.25052 -1.89852,2.12589 a 2.796629,2.8193658 60 0 0 -0.38653,1.42105 l -0.15915,20.49725 a 3.2968391,3.3195759 27.4 0 0 0.61389,1.95536 l 4.02442,5.77515 a 1.3528409,1.3528409 0 0 0 1.81894,0.37516 q 2.92168,-1.78484 4.22905,-3.54694 a 2.3418926,2.4328399 66.3 0 0 0.46611,-1.13684 c 1.89852,-15.33599 14.56293,-28.22777 30.06944,-29.60334 a 1.2391568,1.2164199 12.3 0 0 0.95495,-0.60253 q 3.2741,-5.72968 3.93347,-6.63915 8.37852,-11.57304 22.05472,-14.33557 3.12631,-0.62526 12.00504,-0.78442 18.00756,-0.32968 26.28376,15.4383 1.89853,3.62653 1.87579,9.56084 c -0.11368,26.31787 -0.59116,40.90354 -0.0682,62.02605 0.22737,9.42441 -0.22737,18.61008 0.0227,26.9886 q 0.15916,5.616 0.0341,15.19957 -0.34105,25.81766 -0.0114,37.6408 0.27285,9.62905 -0.19326,22.64588 -0.22737,6.24126 0.26147,22.6345 0.20464,6.83242 -0.216,29.64882 c -0.14778,8.40125 0.32969,15.82483 0.59116,24.20335 0.34105,10.99325 -2.79663,20.01977 -11.60715,27.07955 -9.6063,7.68505 -25.19239,7.44631 -35.37849,1.3301 q -8.42399,-5.05894 -15.71114,-15.89303 a 2.2736821,2.2509453 73.4 0 0 -1.83032,-1.00042 C 140.31786,363.80922 128.3924,351.5086 125.01598,336.33177 a 1.2277883,1.2505252 0.4 0 0 -0.90947,-0.93221 q -15.94988,-3.79705 -20.30398,-19.83787 -1.45516,-5.38863 -0.67074,-11.39115 a 1.8303141,1.8189457 17.5 0 0 -0.97768,-1.86442 C 89.3078,295.66697 84.44212,280.63793 88.85307,267.2232 a 2.1372612,2.159998 34.4 0 0 -0.36379,-2.03494 Q 85.6017,261.60721 83.54402,256.787 c -1.37558,-3.21726 -1.28463,-6.65052 -1.09137,-9.8223 q 0.47747,-8.06021 5.50231,-14.88125 a 0.93220967,0.93220967 0 0 0 -0.77305,-1.4779 q -7.36673,0.25011 -17.00714,0.38653 c -2.50105,0.0341 -3.87663,3.41052 -6.52547,3.79705 q -4.5701,0.67074 -6.80968,-1.60295 c -2.97852,-3.03536 -2.44421,-8.48083 1.25053,-10.69767 q 3.17178,-1.90989 7.17346,-0.29558 c 1.79621,0.73895 2.05769,2.58063 3.49011,3.55831 a 2.7170501,2.7056817 61.3 0 0 1.46652,0.432 l 22.04335,0.0341 a 0.67073623,0.67073623 0 0 0 0.65937,-0.80716 z M 202.93519,120.47976 q 2.58063,0.17053 3.2741,0.93221 2.98989,3.29684 6.92336,5.61599 a 0.44336802,0.4319996 15.7 0 0 0.65937,-0.36378 q 0.18189,-8.31031 0.29558,-14.40378 c 0.19326,-10.50441 -9.16294,-17.82567 -18.92841,-18.74651 -6.08209,-0.57979 -12.8804,-0.84126 -17.8484,1.62568 q -12.14146,6.02526 -18.51914,19.5082 a 1.0345254,1.0345254 0 0 1 -0.88674,0.60252 c -4.3541,0.30695 -7.96925,0.13642 -11.99367,2.22821 q -10.6181,5.53642 -14.52883,16.79114 c -1.17095,3.36505 -1.1141,5.94568 -1.52337,9.69726 a 3.0353656,3.0467341 76.2 0 1 -1.35284,2.22821 c -11.57304,7.60546 -19.98566,21.46355 -15.52925,35.54902 a 1.7621037,1.7621037 0 0 1 -0.6821,1.98947 c -13.9263,9.37894 -18.21219,25.05597 -11.60715,40.42607 a 2.1145244,2.1145244 0 0 0 1.944,1.28463 h 21.96377 a 3.2513654,3.2627339 71.1 0 1 2.56926,1.25052 l 19.74693,25.1924 a 2.1372612,2.1372612 0 0 1 -1.20505,3.39915 l -0.76169,0.1819 a 4.7519957,4.7519957 0 0 1 -5.37725,-2.11453 q -6.33221,-10.50441 -14.5402,-20.71324 a 3.8652596,3.8652596 0 0 0 -2.85347,-1.43242 q -7.99199,-0.28421 -19.89472,-0.38653 -2.808,-0.0227 -4.11536,0.81853 c -10.73178,6.91199 -11.14105,22.03198 -2.39874,30.54692 a 2.6943133,2.6829449 33.5 0 1 0.61389,2.97852 c -6.20715,14.90399 -0.78442,27.14777 13.92631,32.5705 a 1.3414725,1.330104 16.8 0 1 0.84126,1.55747 c -1.80758,7.83284 -2.05768,17.09809 3.94484,23.0324 q 3.10357,3.08084 10.11788,5.44547 c 3.97895,1.34147 6.03663,2.30779 6.59368,6.43452 q 1.60295,11.89136 11.27747,18.59872 c 5.63873,3.89937 11.18651,3.81979 17.68924,3.97894 a 1.3528409,1.3414725 79.8 0 1 1.21642,0.85263 q 0.70484,1.77348 3.024,5.58189 9.18568,15.13136 26.4884,15.19957 c 9.10609,0.0341 16.41598,-3.97894 20.51998,-11.80041 q 1.7621,-3.34231 1.944,-9.69726 c 0.31831,-11.62988 0.15915,-22.37303 0.0682,-38.26607 a 1.1936831,1.1936831 0 0 0 -1.93263,-0.9322 l -7.36673,5.76378 a 3.7856807,3.7743123 68.3 0 0 -1.43242,3.33094 q 0.53431,5.57052 -3.87663,6.0821 -2.04632,0.23874 -3.62652,-1.20505 c -3.83116,-3.51284 1.12547,-8.36715 3.13768,-11.41388 a 3.7515755,3.7061019 89.7 0 1 0.98905,-1.01179 l 13.39199,-9.36757 a 2.0576823,2.0576823 0 0 0 0.88673,-1.69389 v -28.61429 a 1.3755777,1.3755777 0 0 0 -1.31873,-1.37558 l -8.87873,-0.36379 a 4.3768381,4.3541013 68.8 0 1 -2.94442,-1.30737 q -2.75116,-2.78526 -7.29852,-4.86568 a 6.3322047,6.3208363 84.6 0 1 -2.592,-2.14863 l -12.01641,-17.21177 a 1.4778934,1.5006302 72.5 0 0 -1.21642,-0.62526 h -15.4383 a 1.9212614,1.9212614 0 0 1 -1.3301,-0.53432 c -4.70653,-4.61557 -7.992,-9.21978 -11.60715,-13.74441 -2.48968,-3.11494 -1.5461,-8.41262 -1.28463,-12.82356 a 3.183155,3.1604182 23 0 0 -1.03453,-2.53516 q -9.3903,-8.53768 -19.24672,-20.45177 -0.98905,-1.18232 -4.14947,-3.13768 a 2.5919976,2.5692608 55.1 0 0 -1.85305,-0.34105 q -6.47999,1.23915 -8.81051,6.94609 a 2.6602081,2.6602081 0 0 0 0.47747,2.7739 l 6.28673,7.09388 a 1.7621037,1.7621037 0 0 1 -1.31874,2.93305 h -1.88715 a 3.5355757,3.5469441 72.5 0 1 -2.89895,-1.50063 l -5.39999,-7.74188 a 3.7402071,3.7402071 0 0 1 -0.62526,-2.808 c 1.30736,-7.46905 7.42357,-16.81388 16.15451,-15.84757 a 1.3187356,1.3187356 0 0 1 1.10273,0.87537 q 1.59158,4.47916 7.84421,8.07157 a 0.92084126,0.92084126 0 0 0 1.35284,-0.57979 c 1.05726,-4.49052 3.7402,-4.76336 7.8101,-3.50147 a 1.3755777,1.3528409 88.9 0 1 0.87536,0.85264 c 1.296,3.79704 -0.11368,7.99199 -4.75199,7.82146 a 0.61389417,0.61389417 0 0 0 -0.47748,1.02316 l 8.856,9.99283 a 1.2164199,1.2050515 52.2 0 0 1.58021,0.20463 c 9.6063,-6.46862 15.39282,6.67326 5.8661,9.16294 a 1.1141042,1.1141042 0 0 0 -0.8299,1.08 v 7.00294 a 3.5810494,3.6037862 23.4 0 0 0.96632,2.45558 q 3.25136,3.46736 8.00336,9.28799 1.84168,2.23958 4.79747,2.50105 7.88967,0.69347 13.73304,-0.28421 c 2.42147,-0.40926 3.9221,0 4.75199,2.26231 q 4.44505,11.95957 14.06273,20.54272 c 3.7061,3.30821 9.21978,3.25137 13.91493,2.808 a 0.60252576,0.59115735 87.7 0 0 0.54568,-0.60253 v -25.41976 a 0.64799941,0.64799941 0 0 0 -0.98905,-0.55705 q -4.84294,2.95578 -7.35536,7.12799 -1.56884,2.6261 -2.73979,3.06947 c -3.04673,1.17095 -6.91199,-2.97852 -3.96757,-5.20673 q 4.08126,-3.09221 9.08336,-7.53726 c 1.296,-1.14821 3.10357,-2.34189 4.86568,-3.2741 a 1.7962089,1.7962089 0 0 0 0.93221,-1.34147 q 0.85263,-6.38905 -1.01179,-9.34484 c -2.22821,-3.54694 -3.24,-6.36631 -6.86652,-6.75283 q -1.26189,-0.13642 -10.67494,-0.45474 -3.46736,-0.12505 -3.61515,-4.05852 -0.20463,-5.70694 -0.37516,-14.64251 -0.091,-4.60421 -3.96758,-9.60631 c -1.52336,-1.95537 -3.84252,-2.23958 -6.01388,-2.23958 q -4.104,0.0114 -7.45768,-0.0455 a 1.3983145,1.3983145 0 0 1 -1.05726,-0.51158 l -6.22989,-7.70778 a 18.996614,19.610508 10.6 0 1 -1.97811,-2.9899 l -3.01263,-5.67283 a 1.466525,1.523367 30.5 0 1 -0.18189,-0.76169 q 0.23874,-7.45767 0.53432,-9.66314 0.42063,-3.25137 -0.72758,-5.34316 c -1.75074,-3.18315 -2.09179,-5.39999 -0.69348,-7.73052 1.81895,-3.02399 7.20758,-2.37599 9.37894,-0.31831 2.83074,2.68294 1.52337,5.12715 -0.82989,7.38946 a 3.2627339,3.2854707 67.7 0 0 -0.98905,2.3419 v 12.49388 a 2.6261029,2.6829449 27.1 0 0 0.47747,1.52337 l 6.60505,9.44715 a 2.3077874,2.2736821 74.1 0 0 1.73936,0.98905 q 4.70653,0.27284 7.3781,0.432 c 4.32,0.23873 7.94652,6.13894 11.58441,10.77725 1.60295,2.03495 1.88716,3.76295 1.95537,6.35494 q 0.0227,0.84127 -0.216,12.69852 a 1.2618936,1.2618936 0 0 0 1.25052,1.296 l 10.22021,0.0796 a 2.9103131,2.739787 56.1 0 1 1.20505,0.27284 q 0.81852,0.37515 2.31915,1.7621 a 0.89810444,0.89810444 0 0 0 1.512,-0.65937 v -55.46647 a 2.6602081,2.6488397 0 0 0 -2.66021,-2.64884 h -4.44504 a 1.3414725,1.3414725 0 0 1 -1.34148,-1.39832 l 0.0568,-1.44378 a 1.8303141,1.8303141 0 0 1 1.9099,-1.75074 l 5.39999,0.216 a 0.89810444,0.89810444 0 0 0 0.94358,-0.8981 v -20.11072 a 1.2164199,1.2050515 4.8 0 0 -1.01179,-1.19369 c -4.55873,-0.75031 -8.73094,-7.79873 -10.49304,-11.22062 a 0.5343153,0.5343153 0 0 1 0.51158,-0.77305 z"
       data-svg-id="svg-elem-1769288067677-k00ajkosk"
       id="svg-elem-1769288067677-k00ajkosk"
       style="stroke-width:1.13684" />
    <path
       fill="#0e2b47"
       d="m 202.42361,121.25281 c 1.7621,3.42189 5.93431,10.47031 10.49304,11.22062 a 1.2164199,1.2050515 4.8 0 1 1.01179,1.19369 v 20.11072 a 0.89810444,0.89810444 0 0 1 -0.94358,0.8981 l -5.39999,-0.216 a 1.8303141,1.8303141 0 0 0 -1.9099,1.75074 l -0.0568,1.44378 a 1.3414725,1.3414725 0 0 0 1.34148,1.39832 h 4.44504 a 2.6602081,2.6488397 0 0 1 2.66021,2.64884 v 55.46647 a 0.89810444,0.89810444 0 0 1 -1.512,0.65937 q -1.50063,-1.38695 -2.31915,-1.7621 a 2.9103131,2.739787 56.1 0 0 -1.20505,-0.27284 l -10.22021,-0.0796 a 1.2618936,1.2618936 0 0 1 -1.25052,-1.296 q 0.23874,-11.85725 0.216,-12.69852 c -0.0682,-2.59199 -0.35242,-4.31999 -1.95537,-6.35494 -3.63789,-4.63831 -7.26441,-10.53852 -11.58441,-10.77725 q -2.67157,-0.15916 -7.3781,-0.432 a 2.3077874,2.2736821 74.1 0 1 -1.73936,-0.98905 l -6.60505,-9.44715 a 2.6261029,2.6829449 27.1 0 1 -0.47747,-1.52337 v -12.49388 a 3.2627339,3.2854707 67.7 0 1 0.98905,-2.3419 c 2.35326,-2.26231 3.66063,-4.70652 0.82989,-7.38946 -2.17136,-2.05768 -7.55999,-2.70568 -9.37894,0.31831 -1.39831,2.33053 -1.05726,4.54737 0.69348,7.73052 q 1.14821,2.09179 0.72758,5.34316 -0.29558,2.20547 -0.53432,9.66314 a 1.466525,1.523367 30.5 0 0 0.18189,0.76169 l 3.01263,5.67283 a 18.996614,19.610508 10.6 0 0 1.97811,2.9899 l 6.22989,7.70778 a 1.3983145,1.3983145 0 0 0 1.05726,0.51158 q 3.35368,0.0568 7.45768,0.0455 c 2.17136,0 4.49052,0.28421 6.01388,2.23958 q 3.87663,5.0021 3.96758,9.60631 0.17053,8.93557 0.37516,14.64251 0.14779,3.93347 3.61515,4.05852 9.41305,0.31832 10.67494,0.45474 c 3.62652,0.38652 4.63831,3.20589 6.86652,6.75283 q 1.86442,2.95579 1.01179,9.34484 a 1.7962089,1.7962089 0 0 1 -0.93221,1.34147 c -1.76211,0.93221 -3.56968,2.12589 -4.86568,3.2741 q -5.0021,4.44505 -9.08336,7.53726 c -2.94442,2.22821 0.92084,6.37768 3.96757,5.20673 q 1.17095,-0.44337 2.73979,-3.06947 2.51242,-4.17221 7.35536,-7.12799 a 0.64799941,0.64799941 0 0 1 0.98905,0.55705 v 25.41976 a 0.60252576,0.59115735 87.7 0 1 -0.54568,0.60253 c -4.69515,0.44337 -10.20883,0.50021 -13.91493,-2.808 q -9.61768,-8.58315 -14.06273,-20.54272 c -0.82989,-2.26231 -2.33052,-2.67157 -4.75199,-2.26231 q -5.84337,0.97768 -13.73304,0.28421 -2.95579,-0.26147 -4.79747,-2.50105 -4.752,-5.82063 -8.00336,-9.28799 a 3.5810494,3.6037862 23.4 0 1 -0.96632,-2.45558 v -7.00294 a 1.1141042,1.1141042 0 0 1 0.8299,-1.08 c 9.52672,-2.48968 3.7402,-15.63156 -5.8661,-9.16294 a 1.2164199,1.2050515 52.2 0 1 -1.58021,-0.20463 l -8.856,-9.99283 a 0.61389417,0.61389417 0 0 1 0.47748,-1.02316 c 4.63831,0.17053 6.04799,-4.02442 4.75199,-7.82146 a 1.3755777,1.3528409 88.9 0 0 -0.87536,-0.85264 c -4.0699,-1.26189 -6.75284,-0.98905 -7.8101,3.50147 a 0.92084126,0.92084126 0 0 1 -1.35284,0.57979 q -6.25263,-3.59241 -7.84421,-8.07157 a 1.3187356,1.3187356 0 0 0 -1.10273,-0.87537 c -8.73094,-0.96631 -14.84715,8.37852 -16.15451,15.84757 a 3.7402071,3.7402071 0 0 0 0.62526,2.808 l 5.39999,7.74188 a 3.5355757,3.5469441 72.5 0 0 2.89895,1.50063 h 1.88715 a 1.7621037,1.7621037 0 0 0 1.31874,-2.93305 l -6.28673,-7.09388 a 2.6602081,2.6602081 0 0 1 -0.47747,-2.7739 q 2.33052,-5.70694 8.81051,-6.94609 a 2.5919976,2.5692608 55.1 0 1 1.85305,0.34105 q 3.16042,1.95536 4.14947,3.13768 9.85642,11.91409 19.24672,20.45177 a 3.183155,3.1604182 23 0 1 1.03453,2.53516 c -0.26147,4.41094 -1.20505,9.70862 1.28463,12.82356 3.61515,4.52463 6.90062,9.12884 11.60715,13.74441 a 1.9212614,1.9212614 0 0 0 1.3301,0.53432 h 15.4383 a 1.4778934,1.5006302 72.5 0 1 1.21642,0.62526 l 12.01641,17.21177 a 6.3322047,6.3208363 84.6 0 0 2.592,2.14863 q 4.54736,2.08042 7.29852,4.86568 a 4.3768381,4.3541013 68.8 0 0 2.94442,1.30737 l 8.87873,0.36379 a 1.3755777,1.3755777 0 0 1 1.31873,1.37558 v 28.61429 a 2.0576823,2.0576823 0 0 1 -0.88673,1.69389 l -13.39199,9.36757 a 3.7515755,3.7061019 89.7 0 0 -0.98905,1.01179 c -2.01221,3.04673 -6.96884,7.90104 -3.13768,11.41388 q 1.5802,1.44379 3.62652,1.20505 4.41094,-0.51158 3.87663,-6.0821 a 3.7856807,3.7743123 68.3 0 1 1.43242,-3.33094 l 7.36673,-5.76378 a 1.1936831,1.1936831 0 0 1 1.93263,0.9322 c 0.0909,15.89304 0.2501,26.63619 -0.0682,38.26607 q -0.1819,6.35495 -1.944,9.69726 c -4.104,7.82147 -11.41389,11.83451 -20.51998,11.80041 q -17.30272,-0.0682 -26.4884,-15.19957 -2.31916,-3.80841 -3.024,-5.58189 a 1.3528409,1.3414725 79.8 0 0 -1.21642,-0.85263 c -6.50273,-0.15915 -12.05051,-0.0796 -17.68924,-3.97894 q -9.67452,-6.70736 -11.27747,-18.59872 c -0.55705,-4.12673 -2.61473,-5.09305 -6.59368,-6.43452 q -7.01431,-2.36463 -10.11788,-5.44547 c -6.00252,-5.93431 -5.75242,-15.19956 -3.94484,-23.0324 a 1.3414725,1.330104 16.8 0 0 -0.84126,-1.55747 C 95.5947,292.3133 90.17197,280.06952 96.37912,265.16553 a 2.6943133,2.6829449 33.5 0 0 -0.61389,-2.97852 c -8.74231,-8.51494 -8.33304,-23.63493 2.39874,-30.54692 q 1.30736,-0.84126 4.11536,-0.81853 11.90273,0.10232 19.89472,0.38653 a 3.8652596,3.8652596 0 0 1 2.85347,1.43242 q 8.20799,10.20883 14.5402,20.71324 a 4.7519957,4.7519957 0 0 0 5.37725,2.11453 l 0.76169,-0.1819 a 2.1372612,2.1372612 0 0 0 1.20505,-3.39915 l -19.74693,-25.1924 a 3.2513654,3.2627339 71.1 0 0 -2.56926,-1.25052 h -21.96377 a 2.1145244,2.1145244 0 0 1 -1.944,-1.28463 c -6.60504,-15.3701 -2.31915,-31.04713 11.60715,-40.42607 a 1.7621037,1.7621037 0 0 0 0.6821,-1.98947 c -4.45641,-14.08547 3.95621,-27.94356 15.52925,-35.54902 a 3.0353656,3.0467341 76.2 0 0 1.35284,-2.22821 c 0.40927,-3.75158 0.35242,-6.33221 1.52337,-9.69726 q 3.91073,-11.25472 14.52883,-16.79114 c 4.02442,-2.09179 7.63957,-1.92126 11.99367,-2.22821 a 1.0345254,1.0345254 0 0 0 0.88674,-0.60252 q 6.37768,-13.48294 18.51914,-19.5082 c 4.968,-2.46694 11.76631,-2.20547 17.8484,-1.62568 9.76547,0.92084 19.12167,8.2421 18.92841,18.74651 q -0.11369,6.09347 -0.29558,14.40378 a 0.44336802,0.4319996 15.7 0 1 -0.65937,0.36378 q -3.93347,-2.31915 -6.92336,-5.61599 -0.69347,-0.76168 -3.2741,-0.93221 a 0.5343153,0.5343153 0 0 0 -0.51158,0.77305 z m 0.0568,-3.63789 2.1941,-1.944 a 1.71663,1.71663 0 0 0 -0.0341,-2.59199 q -3.37642,-2.81937 -5.67284,-5.82063 c -2.46694,-3.19452 -5.80926,-4.47916 -9.40167,-4.26316 -3.96758,0.23874 -5.832,3.38779 -5.14989,6.98021 1.03452,5.45684 6.79831,4.82021 10.75451,3.26273 a 1.3187356,1.330104 58.5 0 1 1.4779,0.35242 l 3.43326,3.87663 a 1.6938932,1.6938932 0 0 0 2.39873,0.14779 z m 0.36379,25.46524 a 2.796629,2.7852606 46 0 0 0.0682,-4.25178 q -7.53726,-6.61642 -18.00756,-18.6442 c -3.56968,-4.10399 -9.18568,-10.93641 -13.75578,-5.2522 q -2.26231,2.80799 0.38653,5.88883 a 1.3187356,1.3414725 64.3 0 0 1.26189,0.432 l 4.28589,-0.85263 a 2.159998,2.159998 0 0 1 2.03495,0.69347 l 19.21261,21.65683 a 3.239997,3.2286286 50 0 0 4.43368,0.38652 z m -23.07787,3.66063 a 2.4442083,2.4442083 0 0 0 0.52294,-3.83116 q -7.08252,-7.24167 -11.47072,-11.97093 c -4.33137,-4.68379 -9.65178,-4.14947 -16.89346,-4.08126 q -6.65052,0.0568 -9.9701,4.16084 c -2.48968,3.08084 -3.83115,5.99115 -0.19326,8.67409 3.94484,2.91032 6.86652,-1.25052 8.75368,-4.43368 a 2.7625238,2.7738922 15.5 0 1 2.37599,-1.35284 h 9.83368 a 3.8538912,3.819786 66.1 0 1 2.592,1.01179 q 7.32125,6.82105 9.48125,11.33431 a 2.6829449,2.6829449 0 0 0 3.77431,1.17094 z m 7.07115,25.11282 a 1.7962089,1.8075773 59 0 1 1.9781,0.48884 l 7.78736,8.77641 a 2.0008403,2.0122087 48.5 0 0 2.84211,0.17053 l 0.29557,-0.26147 a 2.7625238,2.7738922 48.4 0 0 0.23874,-3.91074 q -5.30905,-5.95704 -10.82273,-10.4703 -2.68294,-2.19411 -0.0568,-4.87705 4.12674,-4.21768 6.28673,-6.37768 a 2.5124188,2.5124188 0 0 0 -0.0341,-3.58105 l -0.0568,-0.0682 a 2.6829449,2.6829449 0 0 0 -3.75158,0.0227 q -5.45684,5.38862 -8.87873,8.78778 -3.9221,3.87663 -2.60336,8.54904 c 1.05726,3.71747 3.79704,3.888 6.77557,2.75116 z M 151.50446,154.8692 a 1.466525,1.466525 0 0 0 -1.58021,-1.46652 q -2.45558,0.20463 -9.54947,-0.0114 -3.22862,-0.091 -6.58231,2.21684 c -5.51368,3.80842 -16.1204,13.91493 -9.95872,21.3044 q 0.47747,0.56842 2.83073,4.00168 a 1.8303141,1.8416825 85.2 0 0 0.78442,0.65937 q 1.61432,0.76168 3.33095,0.17053 a 1.7507352,1.7393668 70.1 0 0 1.05726,-2.27369 q -0.46611,-1.20505 -1.58021,-2.93305 c -4.36547,-6.77557 2.11452,-12.11872 6.7642,-15.97261 2.81937,-2.33053 10.52715,-1.68253 12.9941,-1.36421 a 1.3187356,1.3187356 0 0 0 1.48926,-1.30737 z m 14.26735,43.25681 -15.38146,-17.3482 a 1.330104,1.3187356 47.7 0 1 0.0796,-1.84168 c 3.56968,-3.35368 -0.31831,-8.59452 -4.1722,-8.53768 -5.09305,0.0796 -7.50316,5.47958 -4.104,9.3221 q 6.67326,7.51452 17.23451,20.57682 2.88758,3.55831 6.32084,-0.13642 a 1.5119986,1.5006302 45.8 0 0 0.0227,-2.03494 z m 9.99284,4.66104 -1.67116,0.32969 a 3.0239972,3.0353656 84.3 0 0 -2.43284,2.96715 q 0.0568,13.13052 0.0909,14.98357 0.0227,1.64842 -1.53474,3.54694 c -1.88715,2.29642 -2.03494,3.97895 -1.59158,6.28673 q 0.30695,1.50063 1.68253,2.18274 5.45684,2.68294 8.4922,-1.76211 a 2.0008403,2.0008403 0 0 1 2.95579,-0.38652 c 3.60378,3.10357 5.14989,5.96841 10.09515,5.80926 q 1.93263,-0.0682 2.61473,-1.68253 a 1.9781035,1.9781035 0 0 0 -1.23915,-2.64884 l -2.88758,-0.8981 a 1.2618936,1.330104 73.2 0 1 -0.432,-0.216 l -10.60673,-8.21936 a 3.0922077,3.0808393 19.5 0 1 -1.20505,-2.51242 l 0.31832,-15.56336 a 2.2168401,2.2168401 0 0 0 -2.64884,-2.21684 z m -16.82525,68.08541 q -0.32969,0.45474 -1.33011,1.12548 c -3.64926,2.43284 1.10274,9.24252 4.88842,4.59284 q 0.38653,-0.47748 3.77431,-5.19537 2.14863,-3.00126 1.55748,-6.63915 a 0.95494649,0.95494649 0 0 0 -0.94358,-0.79579 H 129.6089 a 1.9439982,1.9439982 0 0 1 -1.36421,-0.55705 l -15.46104,-15.07451 a 1.2618936,1.273262 16 0 1 -0.36379,-0.65937 q -0.54568,-2.35326 -0.95494,-3.34231 c -1.48927,-3.60379 -8.21937,-3.33095 -10.27705,-0.47748 -2.808,3.93347 -0.28421,9.46989 4.46779,10.44757 a 0.35242073,0.45473643 52 0 0 0.19326,0 l 4.62694,-0.92084 a 1.7052616,1.7052616 0 0 1 1.61432,0.54568 l 13.51704,15.24504 a 2.0235771,1.9894719 68.9 0 0 1.50063,0.68211 h 31.29723 a 0.64799941,0.636631 17.9 0 1 0.53432,1.02315 z m 26.76374,1.03874 a 3.0126288,3.0126288 0 0 0 -4.26043,-0.0223 l -6.59379,6.52513 a 3.0126288,3.0126288 0 0 0 -0.0223,4.26043 l 0.20793,0.2102 a 3.0126288,3.0126288 0 0 0 4.26042,0.0223 l 6.59379,-6.52513 a 3.0126288,3.0126288 0 0 0 0.0223,-4.26042 z M 134.611,286.61771 v -2.58063 a 1.3642093,1.3755777 0.5 0 0 -1.34147,-1.37557 l -15.91578,-0.31832 a 1.0345254,1.0345254 0 0 1 -1.00042,-1.15958 c 0.25011,-2.13726 0.77305,-4.06989 -0.42063,-5.57052 -2.42147,-3.024 -7.13936,-3.03536 -9.01515,0.30695 a 2.9330499,2.9216815 38.4 0 0 0.3979,3.42189 q 4.44504,4.83158 6.24125,6.87789 a 5.1044164,5.1157848 69.3 0 0 3.83116,1.728 h 15.9044 a 1.3187356,1.330104 0 0 0 1.31874,-1.33011 z m 47.91785,76.83909 a 4.0812594,4.0926278 4.8 0 0 2.52379,3.00126 c 4.50189,1.728 10.91367,1.9781 14.47198,-2.31915 q 4.29726,-5.20674 3.36505,-12.09599 a 1.1368411,1.1254727 87.9 0 0 -1.04589,-0.97769 q -1.98947,-0.10231 -3.68336,-1.73936 -6.36631,-6.10484 -14.25599,-15.72252 c -2.87621,-3.4901 -2.68295,-11.14104 0.35242,-14.61977 q 5.39999,-6.21852 12.5962,-13.39199 a 3.7856807,3.7743123 64.3 0 0 1.09137,-3.12631 q -0.84127,-6.85515 0.69347,-13.69894 a 1.6484195,1.6370511 19.2 0 0 -0.89811,-1.84168 c -4.34273,-2.09179 -5.47957,1.03453 -7.36673,3.53558 a 1.330104,1.2846304 17.9 0 1 -1.04589,0.51157 h -31.3313 a 1.1141042,1.1254727 78 0 1 -1.02316,-0.65936 q -2.39873,-5.45684 -8.16252,-4.17221 c -7.04841,1.56884 -6.10483,10.64083 0.79579,12.31199 a 3.2627339,3.3082075 44.6 0 0 1.61432,-0.0227 c 3.08084,-0.81852 4.97936,-1.53473 8.54904,-1.61431 q 15.80209,-0.37516 29.06903,-0.0114 a 1.6370511,1.6143143 84.9 0 1 1.5461,1.30737 l 0.70484,3.56968 a 3.1717866,3.1490497 61.2 0 1 -0.79578,2.78526 q -11.36842,12.06188 -11.98231,12.78946 c -3.46737,4.06989 -3.20589,10.48167 -2.70568,15.49514 q 0.216,2.17137 1.79621,3.60379 9.62904,8.75368 17.91661,17.8143 a 1.6143143,1.6143143 0 0 1 0.432,1.18231 q -0.14779,2.92169 -2.64884,4.09263 -3.53557,1.64842 -9.32209,0.32969 a 1.3869461,1.3869461 0 0 0 -1.65979,1.62568 z m -37.31112,-51.55574 -9.76547,-0.19326 a 1.4324197,1.4324197 0 0 1 -1.08,-0.52295 l -4.43368,-5.26358 a 2.2623137,1.9439982 18.8 0 1 -0.36379,-0.61389 l -1.48926,-3.7061 a 1.5119986,1.523367 1.1 0 0 -0.77305,-0.80716 c -3.47873,-1.60294 -8.15115,1.2619 -5.0021,4.89979 q 1.12547,1.296 5.44547,5.9002 a 2.0463139,2.0349455 43.3 0 1 0.0796,2.70568 q -1.18232,1.42105 -1.6939,2.14863 a 2.6488397,2.5806292 40.4 0 0 0.30695,3.29684 c 2.77389,2.91032 5.2181,0.89811 7.32126,-1.26189 a 1.5347354,1.5461038 22.3 0 1 1.10273,-0.46611 h 9.73136 a 1.6711564,1.659788 0.6 0 0 1.67116,-1.62568 l 0.0682,-3.33094 a 1.1482095,1.1368411 1.1 0 0 -1.12547,-1.15958 z m 26.19281,-8.4922 a 3.683365,3.6719966 32.6 0 0 -4.68378,1.02315 l -11.80041,15.77936 a 7.4576774,7.4576774 0 0 0 -1.48926,4.29726 l -0.23874,9.6063 a 7.0825198,6.7869412 54.4 0 1 -0.22737,1.58021 c -0.60252,2.26232 -1.68252,4.41095 -1.04589,6.65052 1.48926,5.28631 10.40209,5.20673 11.31157,-0.31831 q 0.61389,-3.77432 -2.73979,-4.7861 a 1.5574723,1.5688407 5.9 0 1 -1.10274,-1.36421 c -0.50021,-5.62737 -0.72757,-11.5162 2.76253,-16.29094 q 2.70568,-3.7061 10.03831,-12.44841 a 2.4328399,2.4214715 35.5 0 0 -0.6139,-3.63789 z m -27.8185,27.89808 a 3.2286286,3.2286286 0 0 0 -3.22862,-3.22863 3.2286286,3.2286286 0 0 0 -3.22863,3.22863 3.2286286,3.2286286 0 0 0 3.22863,3.22862 3.2286286,3.2286286 0 0 0 3.22862,-3.22862 z m 29.53502,17.74449 a 5.9115735,5.6159949 66.3 0 0 -2.76627,7.67027 5.9115735,5.6159949 66.3 0 0 7.51849,3.15564 5.9115735,5.6159949 66.3 0 0 2.76628,-7.67026 5.9115735,5.6159949 66.3 0 0 -7.5185,-3.15565 z"
       data-svg-id="svg-elem-1769288067677-regl9f6a5"
       id="svg-elem-1769288067677-regl9f6a5"
       style="stroke-width:1.13684" />
    <path
       fill="#0e2b47"
       d="m 445.33244,95.78757 10.1861,5.54779 a 1.5574723,1.5688407 25.5 0 1 0.69347,1.96673 l -1.88716,4.59284 a 1.4551566,1.4551566 0 0 1 -2.08042,0.70484 l -5.76378,-3.34231 -6.95747,-3.672 a 0.97768332,0.97768332 0 0 1 -0.40926,-1.3301 q 0.97768,-1.87579 1.83031,-4.08126 c 0.95495,-2.50105 2.85347,-1.71663 4.38821,-0.38653 z"
       data-svg-id="svg-elem-1769288067677-80g6u6atu"
       id="svg-elem-1769288067677-80g6u6atu"
       style="stroke-width:1.13684" />
    <path
       fill="#0e2b47"
       d="m 26.31556,100.3122 q 2.92168,4.70652 0.61389,5.05894 l -11.28883,6.49137 a 1.9326298,1.9326298 0 0 1 -2.58063,-0.62527 l -2.48968,-3.83115 a 1.5461038,1.5461038 0 0 1 0.60253,-2.22821 q 4.19494,-2.10316 12.30062,-6.83242 0.94358,-0.55705 2.8421,1.96674 z"
       data-svg-id="svg-elem-1769288067677-widua18ek"
       id="svg-elem-1769288067677-widua18ek"
       style="stroke-width:1.13684" />
    <path
       fill="#6ac0df"
       d="m 200.08172,117.46713 -3.43326,-3.87663 a 1.3187356,1.330104 58.5 0 0 -1.4779,-0.35242 c -3.9562,1.55748 -9.71999,2.19411 -10.75451,-3.26273 -0.68211,-3.59242 1.18231,-6.74147 5.14989,-6.98021 3.59241,-0.216 6.93473,1.06864 9.40167,4.26316 q 2.29642,3.00126 5.67284,5.82063 a 1.71663,1.71663 0 0 1 0.0341,2.59199 l -2.1941,1.944 a 1.6938932,1.6938932 0 0 1 -2.39873,-0.14779 z"
       data-svg-id="svg-elem-1769288067677-fsy2ld0ls"
       id="svg-elem-1769288067677-fsy2ld0ls"
       style="stroke-width:1.13684" />
    <path
       fill="#6ac0df"
       d="m 202.84424,143.08016 -0.0796,0.0568 a 3.239997,3.2286286 50 0 1 -4.43368,-0.38652 l -19.21261,-21.65683 a 2.159998,2.159998 0 0 0 -2.03495,-0.69347 l -4.28589,0.85263 a 1.3187356,1.3414725 64.3 0 1 -1.26189,-0.432 q -2.64884,-3.08084 -0.38653,-5.88883 c 4.5701,-5.68421 10.1861,1.14821 13.75578,5.2522 q 10.4703,12.02778 18.00756,18.6442 a 2.796629,2.7852606 46 0 1 -0.0682,4.25178 z"
       data-svg-id="svg-elem-1769288067677-4kdte2mli"
       id="svg-elem-1769288067677-4kdte2mli"
       style="stroke-width:1.13684" />
    <path
       id="svg-elem-1769288067677-sargzh13f"
       style="fill:#0e2b47;stroke-width:1.13684"
       transform="rotate(-0.7)"
       d="m 456.61336,120.58834 h 5.59326 c 0.46605,0 0.84126,0.3752 0.84126,0.84126 v 15.30188 c 0,0.46606 -0.37521,0.84127 -0.84126,0.84127 h -5.59326 c -0.46606,0 -0.84127,-0.37521 -0.84127,-0.84127 V 121.4296 c 0,-0.46606 0.37521,-0.84126 0.84127,-0.84126 z" />
    <path
       fill="#0e2b47"
       d="m 13.67389,126.73239 -0.13642,9.28799 a 1.1368411,1.1482095 0.3 0 1 -1.13684,1.13684 H 6.96652 a 1.1368411,1.1254727 89.4 0 1 -1.12547,-1.11411 l -0.18189,-10.81135 0.0682,-3.97895 a 1.3983145,1.3983145 0 0 1 1.39831,-1.37558 h 4.99073 a 1.4096829,1.3983145 89 0 1 1.39832,1.36421 z"
       data-svg-id="svg-elem-1769288067677-xyka6arr9"
       id="svg-elem-1769288067677-xyka6arr9"
       style="stroke-width:1.13684" />
    <path
       fill="#6ac0df"
       d="m 179.76637,146.74079 -1.19369,0.6821 a 2.6829449,2.6829449 0 0 1 -3.77431,-1.17094 q -2.16,-4.51326 -9.48125,-11.33431 a 3.8538912,3.819786 66.1 0 0 -2.592,-1.01179 h -9.83368 a 2.7625238,2.7738922 15.5 0 0 -2.37599,1.35284 c -1.88716,3.18316 -4.80884,7.344 -8.75368,4.43368 -3.63789,-2.68294 -2.29642,-5.59325 0.19326,-8.67409 q 3.31958,-4.104 9.9701,-4.16084 c 7.24168,-0.0682 12.56209,-0.60253 16.89346,4.08126 q 4.3882,4.72926 11.47072,11.97093 a 2.4442083,2.4442083 0 0 1 -0.52294,3.83116 z"
       data-svg-id="svg-elem-1769288067677-q4442w8rd"
       id="svg-elem-1769288067677-q4442w8rd"
       style="stroke-width:1.13684" />
    <path
       fill="#0e2b47"
       d="m 458.25832,143.88732 h 5.52505 a 1.0004201,1.0004201 0 0 1 1.00042,1.00042 v 14.97219 a 1.0004201,1.0004201 0 0 1 -1.04589,1.00042 l -5.52505,-0.22736 a 1.0004201,1.0004201 0 0 1 -0.95495,-1.00042 v -14.74483 a 1.0004201,1.0004201 0 0 1 1.00042,-1.00042 z"
       data-svg-id="svg-elem-1769288067677-abl9hgesf"
       id="svg-elem-1769288067677-abl9hgesf"
       style="stroke-width:1.13684" />
    <path
       fill="#9fddee"
       d="m 352.48663,218.77104 c 0.55705,-7.5941 -4.91115,-7.96926 -11.34567,-8.79915 q -12.28926,-1.59158 -23.8623,2.31915 -1.06863,-3.31957 -2.93305,-6.74146 -3.42189,-6.21852 -3.52421,-6.43452 c -2.33052,-4.968 -5.0021,-9.03789 -7.46904,-14.65388 q -2.55789,-5.79789 -5.38863,-11.11831 a 0.89810444,0.90947285 48.6 0 1 0.0682,-0.96632 c 10.26568,-14.03998 20.33809,-24.16924 38.2547,-25.51071 21.30441,-1.61431 43.58649,9.31073 42.88165,33.4686 -0.50021,17.1322 -13.73304,29.38734 -26.68166,38.4366 z m 10.62139,-55.11394 a 17.814299,18.485036 51.6 0 0 -25.55198,-2.479 17.814299,18.485036 51.6 0 0 -3.42132,25.44296 17.814299,18.485036 51.6 0 0 25.55198,2.479 17.814299,18.485036 51.6 0 0 3.42132,-25.44296 z"
       data-svg-id="svg-elem-1769288067678-45vccl63w"
       id="svg-elem-1769288067678-45vccl63w"
       style="stroke-width:1.13684" />
    <path
       id="svg-elem-1769288067678-xns2mdkx1"
       style="fill:#0e2b47;stroke-width:1.13684"
       transform="rotate(-0.7)"
       d="m 4.3013775,148.25737 h 6.9802045 c 0.340097,0 0.613894,0.2738 0.613894,0.61389 v 15.82483 c 0,0.3401 -0.273797,0.6139 -0.613894,0.6139 H 4.3013775 c -0.3400974,0 -0.6138942,-0.2738 -0.6138942,-0.6139 v -15.82483 c 0,-0.34009 0.2737968,-0.61389 0.6138942,-0.61389 z" />
    <path
       fill="#6ac0df"
       d="m 186.83752,171.85361 c -2.97853,1.13684 -5.71831,0.96631 -6.77557,-2.75116 q -1.31874,-4.67241 2.60336,-8.54904 3.42189,-3.39916 8.87873,-8.78778 a 2.6829449,2.6829449 0 0 1 3.75158,-0.0227 l 0.0568,0.0682 a 2.5124188,2.5124188 0 0 1 0.0341,3.58105 q -2.15999,2.16 -6.28673,6.37768 -2.6261,2.68294 0.0568,4.87705 5.51368,4.51326 10.82273,10.4703 a 2.7625238,2.7738922 48.4 0 1 -0.23874,3.91074 l -0.29557,0.26147 a 2.0008403,2.0122087 48.5 0 1 -2.84211,-0.17053 l -7.78736,-8.77641 a 1.7962089,1.8075773 59 0 0 -1.9781,-0.48884 z"
       data-svg-id="svg-elem-1769288067678-gjicy1jig"
       id="svg-elem-1769288067678-gjicy1jig"
       style="stroke-width:1.13684" />
    <path
       fill="#6ac0df"
       d="m 151.5045,154.8692 v 3.024 a 1.3187356,1.3187356 0 0 1 -1.48926,1.30737 c -2.46695,-0.31832 -10.17473,-0.96632 -12.9941,1.36421 -4.64968,3.85389 -11.12967,9.19704 -6.7642,15.97261 q 1.1141,1.728 1.58021,2.93305 a 1.7507352,1.7393668 70.1 0 1 -1.05726,2.27369 q -1.71663,0.59115 -3.33095,-0.17053 a 1.8303141,1.8416825 85.2 0 1 -0.78442,-0.65937 q -2.35326,-3.43326 -2.83073,-4.00168 c -6.16168,-7.38947 4.44504,-17.49598 9.95872,-21.3044 q 3.35369,-2.30779 6.58231,-2.21684 7.09389,0.216 9.54947,0.0114 a 1.466525,1.466525 0 0 1 1.58021,1.46652 z"
       data-svg-id="svg-elem-1769288067678-l0nj6ma8e"
       id="svg-elem-1769288067678-l0nj6ma8e"
       style="stroke-width:1.13684" />
    <path
       id="svg-elem-1769288067678-c66n8z1t4"
       style="fill:#ffffff;stroke-width:1.13684"
       transform="rotate(-38.4)"
       d="m 182.91009,353.80072 a 18.485037,17.814299 0 0 1 -18.48504,17.8143 18.485037,17.814299 0 0 1 -18.48504,-17.8143 18.485037,17.814299 0 0 1 18.48504,-17.8143 18.485037,17.814299 0 0 1 18.48504,17.8143 z" />
    <path
       fill="#6ac0df"
       d="m 165.77185,198.12601 a 1.5119986,1.5006302 45.8 0 1 -0.0227,2.03494 q -3.43326,3.69473 -6.32084,0.13642 -10.56125,-13.0623 -17.23451,-20.57682 c -3.39916,-3.84252 -0.98905,-9.24252 4.104,-9.3221 3.85389,-0.0568 7.74188,5.184 4.1722,8.53768 a 1.330104,1.3187356 47.7 0 0 -0.0796,1.84168 z"
       data-svg-id="svg-elem-1769288067678-nge8noctt"
       id="svg-elem-1769288067678-nge8noctt"
       style="stroke-width:1.13684" />
    <path
       fill="#0e2b47"
       d="m 464.68147,182.66497 -0.23873,4.3541 a 1.6370511,1.6370511 0 0 1 -1.296,1.512 q -2.22821,0.4661 -4.18358,0 a 1.5802091,1.5688407 4.9 0 1 -1.20505,-1.42105 l -0.32968,-4.46779 0.11368,-8.38989 a 2.3418926,2.3418926 0 0 1 2.3419,-2.30778 h 2.15999 a 2.353261,2.353261 0 0 1 2.35326,2.27368 z"
       data-svg-id="svg-elem-1769288067678-mtbtqxr6o"
       id="svg-elem-1769288067678-mtbtqxr6o"
       style="stroke-width:1.13684" />
    <path
       fill="#0e2b47"
       d="m 13.92399,184.13149 -0.216,8.73094 a 0.98905173,0.98905173 0 0 1 -0.98905,0.96632 H 6.67095 A 1.0004201,1.0004201 0 0 1 5.67053,192.86243 L 5.5,186.95086 5.73874,177.6856 a 0.92084126,0.92084126 0 0 1 0.92084,-0.8981 h 6.16168 a 0.94357808,0.94357808 0 0 1 0.94357,0.92084 z"
       data-svg-id="svg-elem-1769288067678-cf2qvqhrk"
       id="svg-elem-1769288067678-cf2qvqhrk"
       style="stroke-width:1.13684" />
    <path
       fill="#9fddee"
       d="m 442.43349,349.47366 q -0.0909,1.69389 -0.59115,2.75115 l -56.86479,-14.69935 a 1.71663,1.71663 0 0 1 -1.28463,-1.77348 q 0.6821,-10.15199 1.62568,-16.79114 1.84168,-12.86904 2.17137,-18.32588 c 0.71621,-12.23241 1.79621,-25.36292 3.91073,-37.43617 1.84168,-10.54989 2.4101,-22.02061 4.25178,-33.4686 q 3.31958,-20.65641 5.4,-40.15323 0.11368,-1.03453 0.61389,-1.65979 a 0.70484146,0.69347305 59.3 0 1 1.22779,0.31832 q 0.0682,0.30694 1.96674,9.92462 0.0796,0.37516 7.34399,30.29681 2.63747,10.91368 3.024,12.65305 0.37516,1.69389 1.21642,4.29725 c 0.60252,1.87579 0.60252,3.89937 1.26189,6.11621 2.91031,9.9701 4.7861,21.83872 7.51452,32.42271 q 5.85473,22.67998 9.81094,39.7667 c 0.95495,4.11536 2.77389,8.90146 3.28547,13.6762 a 5.2294689,5.593258 30.3 0 0 0.25011,1.10273 q 1.68252,4.88842 2.63747,9.90189 0.44336,2.30778 1.22778,1.08 z"
       data-svg-id="svg-elem-1769288067678-6qee0d6je"
       id="svg-elem-1769288067678-6qee0d6je"
       style="stroke-width:1.13684" />
    <path
       fill="#6ac0df"
       d="m 242.83831,189.53149 q 0.35242,6.93473 0.19326,13.88083 -0.0682,2.85347 2.47832,5.0362 a 3.6378914,3.5924178 7.8 0 1 0.86399,1.12547 c 1.28464,2.61474 3.11495,4.93389 3.96758,7.11663 1.63705,4.19494 4.5701,8.03747 6.78694,12.57346 q 7.82147,16.01809 16.75704,31.88839 14.89262,26.42019 17.10946,31.8884 3.50147,8.67409 8.08294,13.47156 -1.14821,3.83116 -0.77306,9.09473 1.11411,15.46104 17.27999,15.60883 l -2.66021,1.56884 a 0.92084126,0.92084126 0 0 0 -0.45474,0.92084 q 0.864,6.55957 4.29726,12.18694 a 1.2164199,1.2164199 0 0 1 0.091,1.06863 l -0.63663,1.64842 q 0.51158,-1.39832 -0.14779,-1.80758 a 0.45473643,0.45473643 0 0 0 -0.47747,0 l -70.70015,45.98522 a 0.73894669,0.73894669 0 0 1 -1.12547,-0.4661 l -0.59116,-2.79663 q 0.32969,-1.59158 0.0114,-3.39916 z"
       data-svg-id="svg-elem-1769288067678-7ioy1gj2w"
       id="svg-elem-1769288067678-7ioy1gj2w"
       style="stroke-width:1.13684" />
    <path
       id="svg-elem-1769288067678-nq8w7tx2l"
       style="fill:#0e2b47;stroke-width:1.13684"
       transform="rotate(-1)"
       d="m 455.8468,208.65352 h 3.024 c 1.07697,0 1.944,0.86702 1.944,1.944 v 12.95998 c 0,1.07698 -0.86703,1.944 -1.944,1.944 h -3.024 c -1.07698,0 -1.944,-0.86702 -1.944,-1.944 v -12.95998 c 0,-1.07698 0.86702,-1.944 1.944,-1.944 z" />
    <path
       fill="#6ac0df"
       d="m 175.76469,202.78705 a 2.2168401,2.2168401 0 0 1 2.64884,2.21684 l -0.31832,15.56336 a 3.0922077,3.0808393 19.5 0 0 1.20505,2.51242 l 10.60673,8.21936 a 1.2618936,1.330104 73.2 0 0 0.432,0.216 l 2.88758,0.8981 a 1.9781035,1.9781035 0 0 1 1.23915,2.64884 q -0.6821,1.61432 -2.61473,1.68253 c -4.94526,0.15915 -6.49137,-2.70569 -10.09515,-5.80926 a 2.0008403,2.0008403 0 0 0 -2.95579,0.38652 q -3.03536,4.44505 -8.4922,1.76211 -1.37558,-0.68211 -1.68253,-2.18274 c -0.44336,-2.30778 -0.29557,-3.99031 1.59158,-6.28673 q 1.55747,-1.89852 1.53474,-3.54694 -0.0341,-1.85305 -0.0909,-14.98357 a 3.0239972,3.0353656 84.3 0 1 2.43284,-2.96715 z"
       data-svg-id="svg-elem-1769288067678-f3t8art6f"
       id="svg-elem-1769288067678-f3t8art6f"
       style="stroke-width:1.13684" />
    <path
       fill="#0e2b47"
       d="m 11.96863,205.0721 a 1.3528409,1.3528409 0 0 1 1.37557,1.33011 l 0.19327,13.81262 a 2.5237872,2.2850505 89.2 0 1 -2.25095,2.55789 l -3.00126,0.0455 A 2.5237872,2.2850505 89.2 0 1 5.9661,220.32854 L 5.77284,206.51592 a 1.3528409,1.3528409 0 0 1 1.33011,-1.37558 z"
       data-svg-id="svg-elem-1769288067678-8mpgvompd"
       id="svg-elem-1769288067678-8mpgvompd"
       style="stroke-width:1.13684" />
    <path
       fill="#ffffff"
       d="m 352.48663,218.77104 q -2.72842,17.3823 -4.64968,22.91871 -3.03537,8.76505 -5.42273,17.70062 -4.33137,16.24546 -4.37684,16.40462 -6.32084,21.72503 -7.38947,26.62481 -0.61389,2.84211 -0.22737,5.16126 a 3.4901021,3.5128389 86.5 0 0 3.28548,2.88758 c 7.8442,0.36379 13.57388,-9.16294 16.09766,-15.27914 a 1.8871562,1.8985246 22.5 0 1 2.46695,-1.02316 l 5.33178,2.1941 a 1.6143143,1.6143143 0 0 1 0.90948,2.02358 q -4.45642,13.03957 -16.16588,23.14608 -12.01641,10.36799 -26.76124,9.68589 -16.16588,-0.14779 -17.27999,-15.60883 -0.37515,-5.26357 0.77306,-9.09473 2.13726,-9.58357 4.92252,-18.38272 4.17221,-13.19872 5.47957,-18.21219 4.18358,-16.0522 9.09473,-32.11576 0.82989,-2.71705 1.00042,-6.33221 a 2.6147344,2.603366 13.1 0 0 -1.58021,-2.52378 q -3.58105,-1.52337 -7.44631,0.29558 c -4.02441,1.88715 -6.36631,6.41178 -9.53809,11.39114 a 1.3528409,1.3414725 19.7 0 1 -1.296,0.60253 q -3.672,-0.42063 -6.264,-2.08042 a 0.92084126,0.92084126 0 0 1 -0.38652,-1.08 c 4.09263,-11.80041 12.01641,-21.39535 24.21471,-25.78356 q 11.57304,-3.91073 23.8623,-2.31915 c 6.43452,0.82989 11.90272,1.20505 11.34567,8.79915 z"
       data-svg-id="svg-elem-1769288067678-21wvoyzeb"
       id="svg-elem-1769288067678-21wvoyzeb"
       style="stroke-width:1.13684" />
    <path
       fill="#0e2b47"
       d="m 464.76105,231.9925 0.31832,13.13051 a 1.3528409,1.3528409 0 0 1 -1.35284,1.38695 h -4.91116 a 1.3414725,1.3414725 0 0 1 -1.34147,-1.37558 l 0.216,-12.48251 q -0.10231,-1.30737 0.28421,-2.50105 a 0.98905173,0.98905173 0 0 1 0.72758,-0.67074 q 6.40042,-1.47789 6.05936,2.51242 z"
       data-svg-id="svg-elem-1769288067678-6ealwmypa"
       id="svg-elem-1769288067678-6ealwmypa"
       style="stroke-width:1.13684" />
    <path
       fill="#0e2b47"
       d="m 13.85578,234.5845 v 15.37009 a 1.2959988,1.2959988 0 0 1 -1.296,1.296 H 7.18252 a 1.2959988,1.2959988 0 0 1 -1.29599,-1.30737 l 0.0114,-14.7562 q 0.0682,-0.38652 0.30695,-0.65936 0.20463,-0.23874 0.63663,-0.28421 3.83116,-0.40927 7.01431,0.34105 z"
       data-svg-id="svg-elem-1769288067678-n3cs3fe7i"
       id="svg-elem-1769288067678-n3cs3fe7i"
       style="stroke-width:1.13684" />
    <path
       fill="#6ac0df"
       d="m 158.93944,270.87246 a 0.64799941,0.636631 17.9 0 0 -0.53432,-1.02315 h -31.29723 a 2.0235771,1.9894719 68.9 0 1 -1.50063,-0.68211 l -13.51704,-15.24504 a 1.7052616,1.7052616 0 0 0 -1.61432,-0.54568 l -4.62694,0.92084 a 0.35242073,0.45473643 52 0 1 -0.19326,0 c -4.752,-0.97768 -7.27579,-6.5141 -4.46779,-10.44757 2.05768,-2.85347 8.78778,-3.12631 10.27705,0.47748 q 0.40926,0.98905 0.95494,3.34231 a 1.2618936,1.273262 16 0 0 0.36379,0.65937 l 15.46104,15.07451 a 1.9439982,1.9439982 0 0 0 1.36421,0.55705 h 37.27702 a 0.95494649,0.95494649 0 0 1 0.94358,0.79579 q 0.59115,3.63789 -1.55748,6.63915 -3.38778,4.71789 -3.77431,5.19537 c -3.78568,4.64968 -8.53768,-2.16 -4.88842,-4.59284 q 1.00042,-0.67074 1.33011,-1.12548 z"
       data-svg-id="svg-elem-1769288067678-meislpksc"
       id="svg-elem-1769288067678-meislpksc"
       style="stroke-width:1.13684" />
    <path
       fill="#0e2b47"
       d="m 458.36064,257.59416 h 6.00252 a 0.76168351,0.76168351 0 0 1 0.76168,0.76168 v 15.85894 a 0.76168351,0.76168351 0 0 1 -0.76168,0.76168 h -6.00252 a 0.76168351,0.76168351 0 0 1 -0.76169,-0.76168 v -15.85894 a 0.76168351,0.76168351 0 0 1 0.76169,-0.76168 z"
       data-svg-id="svg-elem-1769288067678-3uhtzf4g2"
       id="svg-elem-1769288067678-3uhtzf4g2"
       style="stroke-width:1.13684" />
    <path
       fill="#0e2b47"
       d="m 6.62547,262.28931 h 6.49137 a 0.79578875,0.79578875 0 0 1 0.79578,0.79579 v 15.59746 a 0.79578875,0.79578875 0 0 1 -0.79578,0.79579 H 6.62547 A 0.79578875,0.79578875 0 0 1 5.82968,278.68256 V 263.0851 a 0.79578875,0.79578875 0 0 1 0.79579,-0.79579 z"
       data-svg-id="svg-elem-1769288067678-94uvi55ol"
       id="svg-elem-1769288067678-94uvi55ol"
       style="stroke-width:1.13684" />
    <path
       id="svg-elem-1769288067678-mxamczom9"
       style="fill:#6ac0df;stroke-width:1.13684"
       transform="rotate(-44.7)"
       d="m -71.552427,320.8844 h 9.276623 c 1.668996,0 3.012629,1.34363 3.012629,3.01263 v 0.29558 c 0,1.66899 -1.343633,3.01263 -3.012629,3.01263 h -9.276623 c -1.668996,0 -3.012629,-1.34364 -3.012629,-3.01263 v -0.29558 c 0,-1.669 1.343633,-3.01263 3.012629,-3.01263 z" />
    <path
       fill="#6ac0df"
       d="m 134.61104,286.61771 a 1.3187356,1.330104 0 0 1 -1.31874,1.33011 h -15.9044 a 5.1044164,5.1157848 69.3 0 1 -3.83116,-1.728 q -1.79621,-2.04631 -6.24125,-6.87789 a 2.9330499,2.9216815 38.4 0 1 -0.3979,-3.42189 c 1.87579,-3.34231 6.59368,-3.33095 9.01515,-0.30695 1.19368,1.50063 0.67074,3.43326 0.42063,5.57052 a 1.0345254,1.0345254 0 0 0 1.00042,1.15958 l 15.91578,0.31832 a 1.3642093,1.3755777 0.5 0 1 1.34147,1.37557 z"
       data-svg-id="svg-elem-1769288067678-kvbsjljrb"
       id="svg-elem-1769288067678-kvbsjljrb"
       style="stroke-width:1.13684" />
    <path
       fill="#6ac0df"
       d="m 182.52889,363.4568 -0.40926,-2.05768 a 1.3869461,1.3869461 0 0 1 1.65979,-1.62568 q 5.78652,1.31873 9.32209,-0.32969 2.50105,-1.17094 2.64884,-4.09263 a 1.6143143,1.6143143 0 0 0 -0.432,-1.18231 q -8.28757,-9.06062 -17.91661,-17.8143 -1.58021,-1.43242 -1.79621,-3.60379 c -0.50021,-5.01347 -0.76169,-11.42525 2.70568,-15.49514 q 0.61389,-0.72758 11.98231,-12.78946 a 3.1717866,3.1490497 61.2 0 0 0.79578,-2.78526 l -0.70484,-3.56968 a 1.6370511,1.6143143 84.9 0 0 -1.5461,-1.30737 q -13.26694,-0.36379 -29.06903,0.0114 c -3.56968,0.0796 -5.4682,0.79579 -8.54904,1.61431 a 3.2627339,3.3082075 44.6 0 1 -1.61432,0.0227 c -6.90062,-1.67116 -7.8442,-10.74315 -0.79579,-12.31199 q 5.76379,-1.28463 8.16252,4.17221 a 1.1141042,1.1254727 78 0 0 1.02316,0.65936 h 31.33134 a 1.330104,1.2846304 17.9 0 0 1.04589,-0.51157 c 1.88716,-2.50105 3.024,-5.62737 7.36673,-3.53558 a 1.6484195,1.6370511 19.2 0 1 0.89811,1.84168 q -1.53474,6.84379 -0.69347,13.69894 a 3.7856807,3.7743123 64.3 0 1 -1.09137,3.12631 q -7.19621,7.17347 -12.5962,13.39199 c -3.03537,3.47873 -3.22863,11.12967 -0.35242,14.61977 q 7.88968,9.61768 14.25599,15.72252 1.69389,1.63705 3.68336,1.73936 a 1.1368411,1.1254727 87.9 0 1 1.04589,0.97769 q 0.93221,6.88925 -3.36505,12.09599 c -3.55831,4.29725 -9.97009,4.04715 -14.47198,2.31915 a 4.0812594,4.0926278 4.8 0 1 -2.52379,-3.00126 z"
       data-svg-id="svg-elem-1769288067678-yqft5zd15"
       id="svg-elem-1769288067678-yqft5zd15"
       style="stroke-width:1.13684" />
    <path
       fill="#0e2b47"
       d="m 465.31811,290.40339 0.0455,11.98231 a 1.079999,1.079999 0 0 1 -1.08,1.08 h -5.54778 a 1.079999,1.079999 0 0 1 -1.08,-1.08 l 0.0114,-13.65346 q -0.0796,-0.77305 0.12505,-1.36421 a 0.98905173,0.98905173 0 0 1 0.93221,-0.648 h 5.53641 a 0.93220967,0.92084126 77.5 0 1 0.84127,0.54568 q 0.56842,1.25053 0.216,3.13768 z"
       data-svg-id="svg-elem-1769288067678-v1ggb3ogu"
       id="svg-elem-1769288067678-v1ggb3ogu"
       style="stroke-width:1.13684" />
    <path
       id="svg-elem-1769288067678-m189q5rwr"
       style="fill:#0e2b47;stroke-width:1.13684"
       transform="rotate(-0.2)"
       d="m 6.1469414,291.10687 h 5.4113636 c 0.717983,0 1.295998,0.57802 1.295998,1.296 v 15.09725 c 0,0.71798 -0.578015,1.296 -1.295998,1.296 H 6.1469414 c -0.7179833,0 -1.2959988,-0.57802 -1.2959988,-1.296 v -15.09725 c 0,-0.71798 0.5780155,-1.296 1.2959988,-1.296 z" />
    <path
       fill="#6ac0df"
       d="m 145.21777,311.90106 a 1.1482095,1.1368411 1.1 0 1 1.12547,1.15958 l -0.0682,3.33094 a 1.6711564,1.659788 0.6 0 1 -1.67116,1.62568 h -9.73136 a 1.5347354,1.5461038 22.3 0 0 -1.10273,0.46611 c -2.10316,2.16 -4.54737,4.17221 -7.32126,1.26189 a 2.6488397,2.5806292 40.4 0 1 -0.30695,-3.29684 q 0.51158,-0.72758 1.6939,-2.14863 a 2.0463139,2.0349455 43.3 0 0 -0.0796,-2.70568 q -4.32,-4.6042 -5.44547,-5.9002 c -3.14905,-3.63789 1.52337,-6.50273 5.0021,-4.89979 a 1.5119986,1.523367 1.1 0 1 0.77305,0.80716 l 1.48926,3.7061 a 2.2623137,1.9439982 18.8 0 0 0.36379,0.61389 l 4.43368,5.26358 a 1.4324197,1.4324197 0 0 0 1.08,0.52295 z"
       data-svg-id="svg-elem-1769288067678-wvlxqimen"
       id="svg-elem-1769288067678-wvlxqimen"
       style="stroke-width:1.13684" />
    <path
       fill="#6ac0df"
       d="m 171.41058,303.40886 0.17053,0.0909 a 2.4328399,2.4214715 35.5 0 1 0.6139,3.63789 q -7.33263,8.74231 -10.03831,12.44841 c -3.4901,4.77474 -3.26274,10.66357 -2.76253,16.29094 a 1.5574723,1.5688407 5.9 0 0 1.10274,1.36421 q 3.35368,1.01178 2.73979,4.7861 c -0.90948,5.52504 -9.82231,5.60462 -11.31157,0.31831 -0.63663,-2.23957 0.44337,-4.3882 1.04589,-6.65052 a 7.0825198,6.7869412 54.4 0 0 0.22737,-1.58021 l 0.23874,-9.6063 a 7.4576774,7.4576774 0 0 1 1.48926,-4.29726 l 11.80041,-15.77936 a 3.683365,3.6719966 32.6 0 1 4.68378,-1.02315 z"
       data-svg-id="svg-elem-1769288067678-so2dape9r"
       id="svg-elem-1769288067678-so2dape9r"
       style="stroke-width:1.13684" />
    <path
       id="svg-elem-1769288067678-w5ol0kue1"
       style="fill:#0e2b47;stroke-width:1.13684"
       transform="rotate(0.1)"
       d="m 459.1633,313.98254 h 5.95705 c 0.45976,0 0.82989,0.37014 0.82989,0.8299 v 15.75661 c 0,0.45977 -0.37013,0.8299 -0.82989,0.8299 h -5.95705 c -0.45976,0 -0.8299,-0.37013 -0.8299,-0.8299 v -15.75661 c 0,-0.45976 0.37014,-0.8299 0.8299,-0.8299 z" />
    <path
       fill="#0e2b47"
       d="m 13.23052,337.33219 -6.264,0.0227 q -0.61389,0.0341 -0.8981,-0.47747 a 0.45473643,0.4319996 32 0 1 -0.0568,-0.216 v -16.15451 a 0.86399921,0.8526308 0 0 1 0.864,-0.85264 h 6.1162 a 0.86399921,0.86399921 0 0 1 0.864,0.84127 q 0.11369,6.43452 -0.0568,16.16588 -0.0114,0.54568 -0.56842,0.67073 z"
       data-svg-id="svg-elem-1769288067678-s2wa62cgy"
       id="svg-elem-1769288067678-s2wa62cgy"
       style="stroke-width:1.13684" />
    <path
       id="svg-elem-1769288067678-ujvkc9a91"
       style="fill:#6ac0df;stroke-width:1.13684"
       d="m 143.59211,331.30695 a 3.2286286,3.2286286 0 0 1 -3.22863,3.22862 3.2286286,3.2286286 0 0 1 -3.22863,-3.22862 3.2286286,3.2286286 0 0 1 3.22863,-3.22863 3.2286286,3.2286286 0 0 1 3.22863,3.22863 z" />
    <path
       fill="#0e2b47"
       d="m 446.58296,376.09847 -2.15999,-6.61641 a 1.0117885,0.98905173 57.4 0 1 0.20463,-0.96632 q 0.48884,-0.53431 1.18231,-0.71621 c 4.12674,-1.20505 6.58231,-4.09262 10.51578,-5.55915 a 2.3305242,2.3077874 80 0 0 1.512,-2.18273 v -14.81304 a 1.2050515,1.1936831 0 0 1 1.20505,-1.19369 h 5.20673 a 1.2505252,1.2505252 0 0 1 1.25053,1.25053 v 15.97262 a 0.79578875,0.78442033 0 0 1 -0.79579,0.78442 h -4.09263 a 0.92084126,0.90947285 71 0 0 -0.71621,1.47789 l 2.28505,2.91031 a 1.1823147,1.1709463 57.4 0 1 -0.38652,1.77348 z"
       data-svg-id="svg-elem-1769288067678-ae2rvvcis"
       id="svg-elem-1769288067678-ae2rvvcis"
       style="stroke-width:1.13684" />
    <path
       fill="#9fddee"
       d="m 316.2214,348.60966 q -0.95495,0.59115 -1.21642,1.03452 c -2.77389,4.76337 -6.34357,9.37894 -8.53768,13.39199 q -2.8421,5.16126 -15.09725,23.98735 -4.61557,7.08252 -9.53809,16.1204 -5.8661,10.78862 -13.50567,20.95198 a 2.739787,2.796629 68.8 0 0 -0.48885,1.08 q -0.38652,1.77347 -1.3301,2.42147 a 2.9216815,2.8648395 88 0 0 -0.87537,0.95495 q -7.68504,13.48294 -9.16294,15.74525 -3.0581,4.69515 -12.95998,17.92798 l -0.12506,-16.71156 -0.20463,-55.98942 0.59116,2.79663 a 0.73894669,0.73894669 0 0 0 1.12547,0.4661 l 70.70015,-45.98522 a 0.45473643,0.45473643 0 0 1 0.47747,0 q 0.65937,0.40926 0.14779,1.80758 z"
       data-svg-id="svg-elem-1769288067678-t2xx8zfdh"
       id="svg-elem-1769288067678-t2xx8zfdh"
       style="stroke-width:1.13684" />
    <path
       id="svg-elem-1769288067678-c6bb7j1vm"
       style="fill:#0e2b47;stroke-width:1.13684"
       transform="rotate(0.1)"
       d="M 7.0321786,348.30725 H 14.46712 c 0.16375,0 0.295578,0.13183 0.295578,0.29558 v 16.34777 c 0,0.16375 -0.131828,0.29558 -0.295578,0.29558 H 7.0321786 c -0.1637506,0 -0.2955787,-0.13183 -0.2955787,-0.29558 v -16.34777 c 0,-0.16375 0.1318281,-0.29558 0.2955787,-0.29558 z" />
    <path
       id="svg-elem-1769288067678-axt2l681c"
       style="fill:#6ac0df;stroke-width:1.13684"
       transform="rotate(-113.7)"
       d="m -389.20131,18.225546 a 5.9115734,5.6159949 0 0 1 -5.91157,5.615995 5.9115734,5.6159949 0 0 1 -5.91158,-5.615995 5.9115734,5.6159949 0 0 1 5.91158,-5.615995 5.9115734,5.6159949 0 0 1 5.91157,5.615995 z" />
    <path
       fill="#0e2b47"
       d="m 28.85072,369.19785 q 1.34147,0.67073 2.20547,1.69389 a 0.8526308,0.82989398 39.4 0 1 0.10231,0.94358 l -3.02399,5.6501 -14.18778,-7.88968 a 1.4096829,1.4210513 29.3 0 1 -0.54568,-1.944 l 2.55789,-4.43368 a 1.4324197,1.4210513 30.2 0 1 1.95536,-0.51157 z"
       data-svg-id="svg-elem-1769288067678-bsoxnsjs1"
       id="svg-elem-1769288067678-bsoxnsjs1"
       style="stroke-width:1.13684" />
    <path
       id="svg-elem-1769288067678-ojkhvr3k2"
       style="fill:#0e2b47;stroke-width:1.13684"
       transform="rotate(-28.4)"
       d="m 187.46004,536.66516 h 14.61978 c 0.81245,0 1.46652,0.65407 1.46652,1.46653 v 4.97936 c 0,0.81246 -0.65407,1.46653 -1.46652,1.46653 h -14.61978 c -0.81245,0 -1.46652,-0.65407 -1.46652,-1.46653 v -4.97936 c 0,-0.81246 0.65407,-1.46653 1.46652,-1.46653 z" />
    <path
       id="svg-elem-1769288067678-jt31rscma"
       style="fill:#0e2b47;stroke-width:1.13684"
       transform="rotate(29.5)"
       d="m 221.86322,307.39471 h 16.59788 c 0.16375,0 0.29558,0.13183 0.29558,0.29558 v 7.23031 c 0,0.16375 -0.13183,0.29558 -0.29558,0.29558 h -16.59788 c -0.16375,0 -0.29558,-0.13183 -0.29558,-0.29558 v -7.23031 c 0,-0.16375 0.13183,-0.29558 0.29558,-0.29558 z" />
    <path
       fill="#0e2b47"
       d="m 413.20531,394.43572 -12.77809,8.0602 a 1.5802091,1.5915775 59 0 1 -2.21684,-0.54568 l -2.09179,-3.61516 a 1.659788,1.6711564 59.6 0 1 0.59116,-2.25094 l 5.75241,-3.456 5.51368,-3.3082 a 1.6143143,1.6256827 57.9 0 1 2.19411,0.50021 z"
       data-svg-id="svg-elem-1769288067678-fd42t9n49"
       id="svg-elem-1769288067678-fd42t9n49"
       style="stroke-width:1.13684" />
    <path
       id="svg-elem-1769288067678-ayce3z5w7"
       style="fill:#0e2b47;stroke-width:1.13684"
       transform="rotate(29.7)"
       d="m 251.61279,306.17459 h 15.16546 c 0.64241,0 1.15958,0.51717 1.15958,1.15958 v 5.38863 c 0,0.6424 -0.51717,1.15957 -1.15958,1.15957 h -15.16546 c -0.6424,0 -1.15957,-0.51717 -1.15957,-1.15957 v -5.38863 c 0,-0.64241 0.51717,-1.15958 1.15957,-1.15958 z" />
    <path
       id="svg-elem-1769288067678-6q2w24m7f"
       style="fill:#0e2b47;stroke-width:1.13684"
       transform="rotate(-29.4)"
       d="m 121.8052,539.73792 h 16.09767 c 0.45346,0 0.81852,0.36506 0.81852,0.81852 v 6.22989 c 0,0.45346 -0.36506,0.81853 -0.81852,0.81853 H 121.8052 c -0.45347,0 -0.81853,-0.36507 -0.81853,-0.81853 v -6.22989 c 0,-0.45346 0.36506,-0.81852 0.81853,-0.81852 z" />
    <path
       id="svg-elem-1769288067678-kq93w2l18"
       style="fill:#0e2b47;stroke-width:1.13684"
       transform="rotate(30)"
       d="m 281.44084,304.72729 h 15.1882 c 0.45346,0 0.81852,0.36507 0.81852,0.81853 v 6.00252 c 0,0.45346 -0.36506,0.81853 -0.81852,0.81853 h -15.1882 c -0.45346,0 -0.81853,-0.36507 -0.81853,-0.81853 v -6.00252 c 0,-0.45346 0.36507,-0.81853 0.81853,-0.81853 z" />
    <path
       id="svg-elem-1769288067678-uiai765mp"
       style="fill:#0e2b47;stroke-width:1.13684"
       transform="rotate(-29.5)"
       d="m 92.857208,539.96301 h 14.597042 c 0.70538,0 1.27326,0.56788 1.27326,1.27326 v 5.184 c 0,0.70539 -0.56788,1.27326 -1.27326,1.27326 H 92.857208 c -0.705387,0 -1.273262,-0.56787 -1.273262,-1.27326 v -5.184 c 0,-0.70538 0.567875,-1.27326 1.273262,-1.27326 z" />
    <path
       fill="#0e2b47"
       d="m 129.30199,426.6879 q 0.12505,0.95495 -0.30695,1.79621 l -2.33052,3.87663 a 1.2050515,1.1936831 30.4 0 1 -1.63705,0.42063 l -12.82357,-7.40084 a 1.3187356,1.330104 30 0 1 -0.47747,-1.80757 l 2.47831,-4.29726 a 1.2959988,1.2959988 0 0 1 1.78484,-0.46611 z"
       data-svg-id="svg-elem-1769288067678-i0ywzok1y"
       id="svg-elem-1769288067678-i0ywzok1y"
       style="stroke-width:1.13684" />
    <path
       fill="#0e2b47"
       d="m 326.78265,444.79778 -1.83031,0.0227 q -2.04631,-2.44421 -2.97852,-5.616 a 0.57978894,0.57978894 0 0 1 0.26147,-0.65937 l 12.74399,-7.35536 a 1.3187356,1.3187356 0 0 1 1.79621,0.47748 l 2.33052,4.03578 a 1.8075773,1.8075773 0 0 1 -0.6821,2.47831 z"
       data-svg-id="svg-elem-1769288067678-e27edxrli"
       id="svg-elem-1769288067678-e27edxrli"
       style="stroke-width:1.13684" />
    <path
       fill="#0e2b47"
       d="m 152.32302,444.59315 q -1.21642,3.04673 -3.29684,1.944 -2.37599,-1.25053 -4.62694,-2.81937 l -7.46904,-4.39957 a 1.4210513,1.4096829 30.3 0 1 -0.51158,-1.92127 l 2.25094,-3.91073 a 1.7848405,1.7734721 30 0 1 2.42147,-0.648 l 12.42568,7.18484 a 0.72757828,0.73894669 25.9 0 1 0.31831,0.92084 z"
       data-svg-id="svg-elem-1769288067678-n9z6y7wlg"
       id="svg-elem-1769288067678-n9z6y7wlg"
       style="stroke-width:1.13684" />
    <path
       fill="#0e2b47"
       d="m 313.95909,447.90136 q 0.6821,0.82989 0.90947,1.46652 a 2.2736821,2.2736821 0 0 1 -1.05726,2.68295 l -11.4821,6.41178 a 2.1713664,2.1827348 60.4 0 1 -2.94442,-0.80716 l -1.69389,-2.93305 a 2.3873662,2.3873662 0 0 1 1.01179,-3.34231 l 5.76378,-2.83074 q 4.5701,-2.91031 6.18442,-3.44462 2.1941,-0.72758 3.30821,2.79663 z"
       data-svg-id="svg-elem-1769288067678-sl9m2eodv"
       id="svg-elem-1769288067678-sl9m2eodv"
       style="stroke-width:1.13684" />
    <path
       fill="#0e2b47"
       d="m 165.78322,446.59399 12.10736,6.84378 a 1.466525,1.4551566 29.8 0 1 0.54568,2.00084 l -2.35326,4.08126 a 1.4437882,1.4324197 29.9 0 1 -1.96673,0.52295 l -12.75536,-7.36673 a 0.82989398,0.82989398 0 0 1 -0.31832,-1.12547 l 2.68295,-4.87705 q 0.864,-0.94358 2.05768,-0.0796 z"
       data-svg-id="svg-elem-1769288067678-ejb2c7f97"
       id="svg-elem-1769288067678-ejb2c7f97"
       style="stroke-width:1.13684" />
    <path
       fill="#0e2b47"
       d="m 287.24332,457.81461 q 0.81853,3.11494 2.36463,5.08168 1.40968,1.78484 -0.48884,2.58063 l -12.10736,6.80968 a 1.1482095,1.1482095 0 0 1 -1.5461,-0.42063 l -2.68295,-4.66105 a 1.4324197,1.4210513 61 0 1 0.55705,-1.97811 z"
       data-svg-id="svg-elem-1769288067678-dnj1t6php"
       id="svg-elem-1769288067678-dnj1t6php"
       style="stroke-width:1.13684" />
    <path
       fill="#0e2b47"
       d="m 185.10952,465.13587 2.97852,-5.14989 a 0.77305192,0.77305192 0 0 1 1.05727,-0.28421 l 13.77851,7.95788 a 0.77305192,0.77305192 0 0 1 0.28421,1.05727 l -2.97852,5.14989 a 0.77305192,0.77305192 0 0 1 -1.05727,0.28421 l -13.77851,-7.95789 a 0.77305192,0.77305192 0 0 1 -0.28421,-1.05726 z"
       data-svg-id="svg-elem-1769288067678-xrm1oqqrv"
       id="svg-elem-1769288067678-xrm1oqqrv"
       style="stroke-width:1.13684" />
    <path
       id="svg-elem-1769288067678-zz3u7f9z3"
       style="fill:#0e2b47;stroke-width:1.13684"
       transform="rotate(-28.8)"
       d="M -13.496899,539.7254 H 1.9868775 c 0.4408669,0 0.7957887,0.35492 0.7957887,0.79579 v 6.22989 c 0,0.44087 -0.3549218,0.79579 -0.7957887,0.79579 H -13.496899 c -0.440867,0 -0.795788,-0.35492 -0.795788,-0.79579 v -6.22989 c 0,-0.44087 0.354921,-0.79579 0.795788,-0.79579 z" />
    <path
       fill="#0e2b47"
       d="m 210.32465,479.28954 1.89853,-4.61558 a 1.330104,1.330104 0 0 1 1.89852,-0.648 l 13.17599,7.61684 a 1.330104,1.330104 0 0 1 0.56842,1.65979 l -1.89852,4.6042 a 1.330104,1.330104 0 0 1 -1.89853,0.648 l -13.17598,-7.60546 a 1.330104,1.330104 0 0 1 -0.56843,-1.65979 z"
       data-svg-id="svg-elem-1769288067678-a8zsbozd5"
       id="svg-elem-1769288067678-a8zsbozd5"
       style="stroke-width:1.13684" />
  </g>
</svg>
